<svg width="18" height="13" viewBox="0 0 18 13" fill="none" xmlns="http://www.w3.org/2000/svg">
<path d="M17.6873 5.02453L13.9047 0.485719C13.778 0.333722 13.6195 0.211428 13.4403 0.127494C13.2611 0.0435591 13.0656 3.44066e-05 12.8677 0H0.9C0.403031 0 0 0.403031 0 0.9V9C0 9.49697 0.403031 9.9 0.9 9.9H1.8C1.8 11.3912 3.00881 12.6 4.5 12.6C5.99119 12.6 7.2 11.3912 7.2 9.9H10.8C10.8 11.3912 12.0088 12.6 13.5 12.6C14.9912 12.6 16.2 11.3912 16.2 9.9H17.1C17.597 9.9 18 9.49697 18 9V5.88881C18 5.57297 17.8892 5.26725 17.6873 5.02453ZM1.8 4.5V1.8H4.5V4.5H1.8ZM4.5 11.25C3.75441 11.25 3.15 10.6456 3.15 9.9C3.15 9.15441 3.75441 8.55 4.5 8.55C5.24559 8.55 5.85 9.15441 5.85 9.9C5.85 10.6456 5.24559 11.25 4.5 11.25ZM9 4.5H6.3V1.8H9V4.5ZM13.5 11.25C12.7544 11.25 12.15 10.6456 12.15 9.9C12.15 9.15441 12.7544 8.55 13.5 8.55C14.2456 8.55 14.85 9.15441 14.85 9.9C14.85 10.6456 14.2456 11.25 13.5 11.25ZM10.8 4.5V1.8H12.6568L14.9068 4.5H10.8Z" fill="#31353D"/>
</svg>
