<svg width="18" height="15" viewBox="0 0 18 15" fill="none" xmlns="http://www.w3.org/2000/svg">
<path d="M4.5 2.39062V0.984375C4.5 0.673699 4.75182 0.421875 5.0625 0.421875H17.4375C17.7482 0.421875 18 0.673699 18 0.984375V2.39062C18 2.7013 17.7482 2.95312 17.4375 2.95312H5.0625C4.75182 2.95312 4.5 2.7013 4.5 2.39062ZM5.0625 8.57812H17.4375C17.7482 8.57812 18 8.3263 18 8.01562V6.60938C18 6.2987 17.7482 6.04688 17.4375 6.04688H5.0625C4.75182 6.04688 4.5 6.2987 4.5 6.60938V8.01562C4.5 8.3263 4.75182 8.57812 5.0625 8.57812ZM5.0625 14.2031H17.4375C17.7482 14.2031 18 13.9513 18 13.6406V12.2344C18 11.9237 17.7482 11.6719 17.4375 11.6719H5.0625C4.75182 11.6719 4.5 11.9237 4.5 12.2344V13.6406C4.5 13.9513 4.75182 14.2031 5.0625 14.2031ZM0.5625 3.375H2.8125C3.12318 3.375 3.375 3.12318 3.375 2.8125V0.5625C3.375 0.251824 3.12318 0 2.8125 0H0.5625C0.251824 0 0 0.251824 0 0.5625V2.8125C0 3.12318 0.251824 3.375 0.5625 3.375ZM0.5625 9H2.8125C3.12318 9 3.375 8.74818 3.375 8.4375V6.1875C3.375 5.87682 3.12318 5.625 2.8125 5.625H0.5625C0.251824 5.625 0 5.87682 0 6.1875V8.4375C0 8.74818 0.251824 9 0.5625 9ZM0.5625 14.625H2.8125C3.12318 14.625 3.375 14.3732 3.375 14.0625V11.8125C3.375 11.5018 3.12318 11.25 2.8125 11.25H0.5625C0.251824 11.25 0 11.5018 0 11.8125V14.0625C0 14.3732 0.251824 14.625 0.5625 14.625Z" fill="#31353D"/>
</svg>
