<svg width="11" height="11" viewBox="0 0 11 11" fill="none" xmlns="http://www.w3.org/2000/svg">
<g clip-path="url(#clip0)">
<path d="M7.01738 3.98535C6.87509 3.98535 6.75977 4.10067 6.75977 4.24296V9.11181C6.75977 9.254 6.87509 9.36943 7.01738 9.36943C7.15967 9.36943 7.27499 9.254 7.27499 9.11181V4.24296C7.27499 4.10067 7.15967 3.98535 7.01738 3.98535Z" fill="#FEFEFF"/>
<path d="M3.97734 3.98535C3.83505 3.98535 3.71973 4.10067 3.71973 4.24296V9.11181C3.71973 9.254 3.83505 9.36943 3.97734 9.36943C4.11963 9.36943 4.23495 9.254 4.23495 9.11181V4.24296C4.23495 4.10067 4.11963 3.98535 3.97734 3.98535Z" fill="#FEFEFF"/>
<path d="M1.76217 3.27468V9.62166C1.76217 9.9968 1.89973 10.3491 2.14004 10.6019C2.37923 10.8554 2.71211 10.9993 3.06049 10.9999H7.93456C8.28304 10.9993 8.61592 10.8554 8.85501 10.6019C9.09532 10.3491 9.23288 9.9968 9.23288 9.62166V3.27468C9.71056 3.14789 10.0201 2.68641 9.9562 2.19624C9.8922 1.70618 9.47469 1.33959 8.9804 1.33949H7.66145V1.01747C7.66296 0.74668 7.55589 0.486655 7.36419 0.295359C7.17249 0.104163 6.91207 -0.00230206 6.64127 -8.82224e-05H4.35377C4.08298 -0.00230206 3.82255 0.104163 3.63086 0.295359C3.43916 0.486655 3.33209 0.74668 3.3336 1.01747V1.33949H2.01465C1.52036 1.33959 1.10285 1.70618 1.03885 2.19624C0.974952 2.68641 1.28449 3.14789 1.76217 3.27468ZM7.93456 10.4847H3.06049C2.62004 10.4847 2.27739 10.1063 2.27739 9.62166V3.29732H8.71765V9.62166C8.71765 10.1063 8.37501 10.4847 7.93456 10.4847ZM3.84882 1.01747C3.84711 0.883334 3.89984 0.754227 3.99503 0.659535C4.09013 0.564843 4.21953 0.512818 4.35377 0.515133H6.64127C6.77551 0.512818 6.90492 0.564843 7.00002 0.659535C7.09521 0.754127 7.14794 0.883334 7.14623 1.01747V1.33949H3.84882V1.01747ZM2.01465 1.85471H8.9804C9.2365 1.85471 9.4441 2.0623 9.4441 2.31841C9.4441 2.57451 9.2365 2.7821 8.9804 2.7821H2.01465C1.75855 2.7821 1.55095 2.57451 1.55095 2.31841C1.55095 2.0623 1.75855 1.85471 2.01465 1.85471Z" fill="#FEFEFF"/>
<path d="M5.49735 3.98535C5.35507 3.98535 5.23975 4.10067 5.23975 4.24296V9.11181C5.23975 9.254 5.35507 9.36943 5.49735 9.36943C5.63964 9.36943 5.75496 9.254 5.75496 9.11181V4.24296C5.75496 4.10067 5.63964 3.98535 5.49735 3.98535Z" fill="#FEFEFF"/>
</g>
<defs>
<clipPath id="clip0">
<rect width="11" height="11" fill="white"/>
</clipPath>
</defs>
</svg>
