<svg width="15" height="15" viewBox="0 0 15 15" fill="none" xmlns="http://www.w3.org/2000/svg">
<path d="M7.49992 0.833374C6.18138 0.833374 4.89245 1.22437 3.79612 1.95691C2.69979 2.68945 1.84531 3.73064 1.34072 4.94882C0.83614 6.16699 0.704118 7.50744 0.961353 8.80064C1.21859 10.0939 1.85353 11.2817 2.78588 12.2141C3.71823 13.1464 4.90611 13.7814 6.19932 14.0386C7.49253 14.2958 8.83297 14.1638 10.0511 13.6592C11.2693 13.1547 12.3105 12.3002 13.0431 11.2038C13.7756 10.1075 14.1666 8.81858 14.1666 7.50004C14.1666 5.73193 13.4642 4.03624 12.214 2.786C10.9637 1.53575 9.26803 0.833374 7.49992 0.833374ZM1.66659 7.50004C1.66699 6.09833 2.17463 4.74411 3.09575 3.68754L11.3124 11.9042C10.4674 12.6339 9.43067 13.1058 8.3254 13.2638C7.22013 13.4218 6.09273 13.2593 5.07708 12.7956C4.06144 12.3318 3.20021 11.5864 2.59567 10.6477C1.99112 9.709 1.66867 8.61655 1.66659 7.50004ZM11.9041 11.3125L3.68742 3.09587C4.80549 2.16168 6.23268 1.67971 7.68821 1.74478C9.14373 1.80985 10.5222 2.41726 11.5525 3.4475C12.5827 4.47774 13.1901 5.85623 13.2552 7.31176C13.3203 8.76728 12.8383 10.1945 11.9041 11.3125Z" fill="#828282"/>
</svg>
