<svg width="15" height="15" viewBox="0 0 15 15" fill="none" xmlns="http://www.w3.org/2000/svg">
<path d="M2.64706 0H11.9876L15 3.01235V12.3529C15 13.055 14.7211 13.7283 14.2247 14.2247C13.7283 14.7211 13.055 15 12.3529 15H2.64706C1.94502 15 1.27173 14.7211 0.775306 14.2247C0.278886 13.7283 0 13.055 0 12.3529V2.64706C0 1.94502 0.278886 1.27173 0.775306 0.775306C1.27173 0.278886 1.94502 0 2.64706 0ZM2.64706 0.882353C2.17903 0.882353 1.73017 1.06828 1.39922 1.39922C1.06828 1.73017 0.882353 2.17903 0.882353 2.64706V12.3529C0.882353 12.821 1.06828 13.2698 1.39922 13.6008C1.73017 13.9317 2.17903 14.1176 2.64706 14.1176H12.3529C12.821 14.1176 13.2698 13.9317 13.6008 13.6008C13.9317 13.2698 14.1176 12.821 14.1176 12.3529V3.45353L11.5465 0.882353H10.5882V5.29412H2.64706V0.882353ZM3.52941 0.882353V4.41176H9.70588V0.882353H3.52941ZM7.94118 7.05882C8.64322 7.05882 9.31651 7.33771 9.81293 7.83413C10.3094 8.33055 10.5882 9.00384 10.5882 9.70588C10.5882 10.4079 10.3094 11.0812 9.81293 11.5776C9.31651 12.0741 8.64322 12.3529 7.94118 12.3529C7.23913 12.3529 6.56584 12.0741 6.06942 11.5776C5.573 11.0812 5.29412 10.4079 5.29412 9.70588C5.29412 9.00384 5.573 8.33055 6.06942 7.83413C6.56584 7.33771 7.23913 7.05882 7.94118 7.05882ZM7.94118 7.94118C7.47315 7.94118 7.02429 8.1271 6.69334 8.45805C6.36239 8.78899 6.17647 9.23785 6.17647 9.70588C6.17647 10.1739 6.36239 10.6228 6.69334 10.9537C7.02429 11.2847 7.47315 11.4706 7.94118 11.4706C8.40921 11.4706 8.85807 11.2847 9.18901 10.9537C9.51996 10.6228 9.70588 10.1739 9.70588 9.70588C9.70588 9.23785 9.51996 8.78899 9.18901 8.45805C8.85807 8.1271 8.40921 7.94118 7.94118 7.94118Z" fill="white"/>
</svg>
