<svg width="18" height="18" viewBox="0 0 18 18" fill="none" xmlns="http://www.w3.org/2000/svg">
<mask id="path-1-inside-1" fill="white">
<path fill-rule="evenodd" clip-rule="evenodd" d="M0 2C0 0.89543 0.895431 0 2 0H16C17.1046 0 18 0.895431 18 2V16C18 17.1046 17.1046 18 16 18H2C0.89543 18 0 17.1046 0 16V9.17448H0.158198C0.890296 9.17448 1.48378 8.58099 1.48378 7.8489C1.48378 7.1168 0.890296 6.52332 0.158198 6.52332H0V2ZM17.8326 9.17432H17.9908V6.52315H17.8326C17.1005 6.52315 16.5071 7.11664 16.5071 7.84874C16.5071 8.58083 17.1005 9.17432 17.8326 9.17432Z"/>
</mask>
<path d="M0 9.17448V7.17448H-2V9.17448H0ZM0 6.52332H-2V8.52332H0V6.52332ZM17.9908 9.17432V11.1743H19.9908V9.17432H17.9908ZM17.9908 6.52315H19.9908V4.52315H17.9908V6.52315ZM17.8326 6.52315V4.52315H17.8326L17.8326 6.52315ZM2 -2C-0.209139 -2 -2 -0.209139 -2 2H2V2V-2ZM16 -2H2V2H16V-2ZM20 2C20 -0.209138 18.2091 -2 16 -2V2H20ZM20 16V2H16V16H20ZM16 20C18.2091 20 20 18.2091 20 16H16V20ZM2 20H16V16H2V20ZM-2 16C-2 18.2091 -0.209139 20 2 20V16H2H-2ZM-2 9.17448V16H2V9.17448H-2ZM0.158198 7.17448H0V11.1745H0.158198V7.17448ZM-0.516222 7.8489C-0.516222 7.47643 -0.214276 7.17448 0.158198 7.17448V11.1745C1.99487 11.1745 3.48378 9.68556 3.48378 7.8489H-0.516222ZM0.158198 8.52332C-0.214276 8.52332 -0.516222 8.22137 -0.516222 7.8489H3.48378C3.48378 6.01223 1.99487 4.52332 0.158198 4.52332V8.52332ZM0 8.52332H0.158198V4.52332H0V8.52332ZM-2 2V6.52332H2V2H-2ZM17.9908 7.17432H17.8326V11.1743H17.9908V7.17432ZM15.9908 6.52315V9.17432H19.9908V6.52315H15.9908ZM17.8326 8.52315H17.9908V4.52315H17.8326V8.52315ZM18.5071 7.84874C18.5071 8.22121 18.2051 8.52315 17.8326 8.52315L17.8326 4.52315C15.996 4.52315 14.5071 6.01207 14.5071 7.84874H18.5071ZM17.8326 7.17432C18.2051 7.17432 18.5071 7.47626 18.5071 7.84874H14.5071C14.5071 9.6854 15.996 11.1743 17.8326 11.1743V7.17432Z" fill="#31353D" mask="url(#path-1-inside-1)"/>
<line x1="14.25" y1="7.25" x2="3.75" y2="7.25" stroke="#31353D" stroke-dasharray="2 2"/>
<line x1="12.75" y1="12.5" x2="5.25" y2="12.5" stroke="#31353D"/>
<line x1="12.75" y1="11" x2="5.25" y2="11" stroke="#31353D"/>
<line x1="12.75" y1="14" x2="5.25" y2="14" stroke="#31353D"/>
<line x1="6.75" y1="3.5" x2="3" y2="3.5" stroke="#31353D"/>
<line x1="15" y1="3.5" x2="11.25" y2="3.5" stroke="#31353D"/>
</svg>
