<svg width="65" height="56" viewBox="0 0 65 56" fill="none" xmlns="http://www.w3.org/2000/svg">
<path d="M0 5C0 2.23858 2.23858 0 5 0H50.3504C52.7564 0 54.8213 1.71369 55.2647 4.07856L63.8897 50.0786C64.4667 53.1556 62.1061 56 58.9754 56H5C2.23858 56 0 53.7614 0 51V5Z" fill="#27AE60"/>
<path d="M13.344 27H18.672C21.2 27 22.864 25.976 22.864 23.928C22.864 22.392 22.064 21.64 20.768 21.144C21.568 20.696 22.24 19.992 22.24 18.728C22.24 17.928 21.984 17.304 21.472 16.792C20.832 16.152 19.824 15.8 18.544 15.8H13.344V27ZM15.744 20.328V17.96H18.176C19.216 17.96 19.792 18.376 19.792 19.112C19.792 19.976 19.104 20.328 18.016 20.328H15.744ZM15.744 24.84V22.376H18.592C19.856 22.376 20.416 22.84 20.416 23.592C20.416 24.456 19.76 24.84 18.672 24.84H15.744ZM29.5629 27.176C32.5709 27.176 34.4749 25.512 34.4749 22.12V15.8H32.0109V22.216C32.0109 23.992 31.0989 24.904 29.5949 24.904C28.0909 24.904 27.1789 23.96 27.1789 22.136V15.8H24.7149V22.2C24.7149 25.496 26.5549 27.176 29.5629 27.176ZM36.9846 27H39.4486V23.416H41.3526L43.7846 27H46.6646L43.9286 23C45.3526 22.472 46.3286 21.336 46.3286 19.528C46.3286 18.44 45.9926 17.56 45.3686 16.936C44.6326 16.2 43.5286 15.8 42.1046 15.8H36.9846V27ZM39.4486 21.24V18.024H41.8966C43.0966 18.024 43.8326 18.568 43.8326 19.624C43.8326 20.6 43.1446 21.24 41.9446 21.24H39.4486ZM13.344 42H18.672C21.2 42 22.864 40.976 22.864 38.928C22.864 37.392 22.064 36.64 20.768 36.144C21.568 35.696 22.24 34.992 22.24 33.728C22.24 32.928 21.984 32.304 21.472 31.792C20.832 31.152 19.824 30.8 18.544 30.8H13.344V42ZM15.744 35.328V32.96H18.176C19.216 32.96 19.792 33.376 19.792 34.112C19.792 34.976 19.104 35.328 18.016 35.328H15.744ZM15.744 39.84V37.376H18.592C19.856 37.376 20.416 37.84 20.416 38.592C20.416 39.456 19.76 39.84 18.672 39.84H15.744ZM29.5629 42.176C32.5709 42.176 34.4749 40.512 34.4749 37.12V30.8H32.0109V37.216C32.0109 38.992 31.0989 39.904 29.5949 39.904C28.0909 39.904 27.1789 38.96 27.1789 37.136V30.8H24.7149V37.2C24.7149 40.496 26.5549 42.176 29.5629 42.176ZM36.9846 42H39.4486V38.416H41.3526L43.7846 42H46.6646L43.9286 38C45.3526 37.472 46.3286 36.336 46.3286 34.528C46.3286 33.44 45.9926 32.56 45.3686 31.936C44.6326 31.2 43.5286 30.8 42.1046 30.8H36.9846V42ZM39.4486 36.24V33.024H41.8966C43.0966 33.024 43.8326 33.568 43.8326 34.624C43.8326 35.6 43.1446 36.24 41.9446 36.24H39.4486Z" fill="white"/>
</svg>
