<svg width="29" height="46" viewBox="0 0 29 46" fill="none" xmlns="http://www.w3.org/2000/svg">
<path d="M14.1933 0.411652C6.36718 0.411652 0.000976562 6.77785 0.000976562 14.6041C0.000976562 22.1539 5.92578 28.3462 13.3701 28.774C13.499 30.1656 13.4023 33.9537 9.77238 39.2232C9.49798 39.6207 9.54778 40.1567 9.88858 40.4976C11.374 41.9829 12.292 42.9185 12.9345 43.5728C13.7754 44.4283 14.1592 44.8189 14.7207 45.3287C14.9111 45.5014 15.1513 45.5883 15.3926 45.5883C15.6269 45.5883 15.8603 45.5064 16.0488 45.3433C22.374 39.8394 29.4004 28.4673 28.3838 14.5318C27.7881 6.35015 21.8203 0.411652 14.1933 0.411652ZM15.4023 43.2222C15.1299 42.9537 14.8193 42.6372 14.3613 42.1713C13.8047 41.604 13.041 40.8266 11.8828 39.6646C16.2881 32.8764 15.456 28.0416 15.0918 27.3482C14.9189 27.0191 14.5644 26.7974 14.1933 26.7974C7.47068 26.7974 2.00098 21.3277 2.00098 14.6041C2.00098 7.88135 7.47068 2.41165 14.1933 2.41165C20.7422 2.41165 25.8711 7.56985 26.3896 14.6763C27.5322 30.3502 18.2168 40.5269 15.4023 43.2222Z" fill="white"/>
</svg>
