<svg width="133" height="39" viewBox="0 0 133 39" fill="none" xmlns="http://www.w3.org/2000/svg">
<path d="M48.1465 33.3845H50.5631L51.6615 30.0525H56.2202L57.3369 33.3845H59.7535L55.1949 20.3861H52.7051L48.1465 33.3845ZM52.2474 28.1302L53.4191 24.6518C53.6388 23.9194 53.9317 22.6379 53.9317 22.6379H53.9683C53.9683 22.6379 54.2612 23.9194 54.4809 24.6518L55.6343 28.1302H52.2474ZM61.1521 37.0461H63.4772V33.0916C63.4772 32.6156 63.4222 32.2861 63.4222 32.2861H63.4588C64.1179 33.1282 65.0882 33.6042 66.1501 33.6042C68.6033 33.6042 70.4158 31.6819 70.4158 28.7161C70.4158 25.8234 68.8047 23.8279 66.2782 23.8279C65.015 23.8279 63.8799 24.3954 63.2758 25.4024H63.2392C63.2392 25.4024 63.2758 25.0911 63.2758 24.7433V24.0476H61.1521V37.0461ZM63.4039 28.771C63.4039 26.7022 64.539 25.8234 65.7656 25.8234C67.1204 25.8234 68.0724 26.9768 68.0724 28.7527C68.0724 30.6018 67.0105 31.6453 65.729 31.6453C64.2095 31.6453 63.4039 30.2173 63.4039 28.771ZM72.3977 37.0461H74.7228V33.0916C74.7228 32.6156 74.6679 32.2861 74.6679 32.2861H74.7045C75.3636 33.1282 76.3339 33.6042 77.3957 33.6042C79.8489 33.6042 81.6614 31.6819 81.6614 28.7161C81.6614 25.8234 80.0503 23.8279 77.5239 23.8279C76.2606 23.8279 75.1256 24.3954 74.5214 25.4024H74.4848C74.4848 25.4024 74.5214 25.0911 74.5214 24.7433V24.0476H72.3977V37.0461ZM74.6496 28.771C74.6496 26.7022 75.7846 25.8234 77.0113 25.8234C78.366 25.8234 79.318 26.9768 79.318 28.7527C79.318 30.6018 78.2562 31.6453 76.9746 31.6453C75.4551 31.6453 74.6496 30.2173 74.6496 28.771ZM87.6161 31.8284C88.7878 33.0001 90.4538 33.6042 92.0649 33.6042C94.8477 33.6042 96.3855 31.865 96.3855 29.7596C96.3855 25.6221 90.3257 26.2445 90.3257 23.8279C90.3257 22.9308 91.1129 22.345 92.3029 22.345C93.3281 22.345 94.4449 22.8393 95.1589 23.4801L96.2024 21.5578C95.1772 20.6241 93.7492 20.1664 92.3944 20.1664C89.868 20.1664 87.964 21.6493 87.964 23.9378C87.964 27.9838 94.0238 27.4711 94.0238 29.9427C94.0238 30.8214 93.2915 31.4256 92.1198 31.4256C90.9115 31.4256 89.6666 30.7482 88.8977 30.0525L87.6161 31.8284ZM98.6721 29.961C98.6721 33.0916 101.254 33.4761 102.553 33.4761C102.865 33.4761 103.084 33.4394 103.267 33.4211V31.389C103.084 31.4256 102.974 31.4256 102.846 31.4256C102.206 31.4256 100.997 31.2059 100.997 29.6681V26.0248H103.121V24.1758H100.997V21.5028H98.727V24.1758H97.4638V26.0248H98.6721V29.961ZM104.387 28.7161C104.387 31.5904 106.676 33.6042 109.513 33.6042C112.351 33.6042 114.639 31.5904 114.639 28.7161C114.639 25.8601 112.351 23.8279 109.495 23.8279C106.676 23.8279 104.387 25.8601 104.387 28.7161ZM106.749 28.7161C106.749 26.9951 107.994 25.8051 109.513 25.8051C111.033 25.8051 112.296 26.9951 112.296 28.7161C112.296 30.4553 111.033 31.627 109.513 31.627C107.994 31.627 106.749 30.4553 106.749 28.7161ZM116.558 33.3845H118.883V29.6131C118.883 27.8556 119.725 26.2079 121.629 26.2079C121.83 26.2079 122.105 26.2262 122.197 26.2445V23.9561C122.05 23.9378 121.904 23.9194 121.757 23.9194C120.348 23.9194 119.212 25.0179 118.791 26.3361H118.755C118.755 26.3361 118.791 26.0431 118.791 25.6953V24.0476H116.558V33.3845ZM123.088 28.7161C123.088 31.3707 125.029 33.6042 128.123 33.6042C129.459 33.6042 130.924 33.1099 131.876 32.2678L130.96 30.6018C130.21 31.2059 129.24 31.627 128.288 31.627C126.878 31.627 125.633 30.7848 125.486 29.1554H131.912C131.949 28.8625 131.986 28.5513 131.986 28.2584C131.986 25.7868 130.521 23.8279 127.848 23.8279C125.047 23.8279 123.088 25.8418 123.088 28.7161ZM125.541 27.5627C125.761 26.3727 126.603 25.5854 127.793 25.5854C128.837 25.5854 129.642 26.3178 129.661 27.5627H125.541Z" fill="#31353D"/>
<path d="M48.324 12.992C48.984 13.724 50.052 14.144 51.072 14.144C52.668 14.144 53.952 13.172 53.952 11.6C53.952 10.556 53.352 9.824 52.464 9.572V9.548C53.064 9.248 53.688 8.672 53.688 7.64C53.688 6.224 52.596 5.384 51.144 5.384C50.424 5.384 49.476 5.516 48.576 6.26L49.08 7.148C49.704 6.62 50.376 6.428 50.976 6.428C52.02 6.428 52.476 7.052 52.476 7.784C52.476 8.588 51.804 9.152 50.952 9.152H50.112V10.136H51.156C52.08 10.136 52.74 10.652 52.74 11.54C52.74 12.5 52.008 13.076 50.976 13.076C50.184 13.076 49.428 12.668 48.984 12.188L48.324 12.992ZM54.9468 12.344C54.9468 13.484 55.9188 14.144 56.9748 14.144C57.8748 14.144 58.6188 13.604 58.9668 12.908H58.9908C58.9908 12.908 58.9548 13.112 58.9548 13.388V14H60.0468V10.16C60.0468 8.624 59.1708 7.784 57.6468 7.784C56.7948 7.784 55.8708 8.096 55.3788 8.504L55.8468 9.356C56.3388 9.008 56.9508 8.768 57.5508 8.768C58.3068 8.768 58.8828 9.104 58.8828 10.1V10.22H58.5708C57.3108 10.22 54.9468 10.436 54.9468 12.344ZM56.1108 12.248C56.1108 11.132 57.7188 11.06 58.5828 11.06H58.8828V11.288C58.8828 12.188 58.2708 13.22 57.2508 13.22C56.4948 13.22 56.1108 12.728 56.1108 12.248ZM61.7672 14H64.3592C65.6792 14 66.5912 13.4 66.5912 12.272C66.5912 11.6 66.1952 11.012 65.4392 10.832V10.82C65.9912 10.58 66.3032 10.076 66.3032 9.488C66.3032 8.468 65.4992 7.928 64.2752 7.928H61.7672V14ZM62.9312 10.496V8.732H64.0352C64.7672 8.732 65.1152 9.02 65.1152 9.572C65.1152 10.136 64.7672 10.496 64.0712 10.496H62.9312ZM62.9312 13.184V11.276H64.1672C64.9712 11.276 65.4152 11.636 65.4152 12.236C65.4152 12.8 65.0192 13.184 64.1792 13.184H62.9312ZM67.4976 12.344C67.4976 13.484 68.4696 14.144 69.5256 14.144C70.4256 14.144 71.1696 13.604 71.5176 12.908H71.5416C71.5416 12.908 71.5056 13.112 71.5056 13.388V14H72.5976V10.16C72.5976 8.624 71.7216 7.784 70.1976 7.784C69.3456 7.784 68.4216 8.096 67.9296 8.504L68.3976 9.356C68.8896 9.008 69.5016 8.768 70.1016 8.768C70.8576 8.768 71.4336 9.104 71.4336 10.1V10.22H71.1216C69.8616 10.22 67.4976 10.436 67.4976 12.344ZM68.6616 12.248C68.6616 11.132 70.2696 11.06 71.1336 11.06H71.4336V11.288C71.4336 12.188 70.8216 13.22 69.8016 13.22C69.0456 13.22 68.6616 12.728 68.6616 12.248ZM74.318 14H75.482V11.396H78.554V14H79.718V7.928H78.554V10.4H75.482V7.928H74.318V14ZM82.9773 14H84.1293V8.924H86.2533V7.928H80.8653V8.924H82.9773V14ZM86.8335 12.344C86.8335 13.484 87.8055 14.144 88.8615 14.144C89.7615 14.144 90.5055 13.604 90.8535 12.908H90.8775C90.8775 12.908 90.8415 13.112 90.8415 13.388V14H91.9335V10.16C91.9335 8.624 91.0575 7.784 89.5335 7.784C88.6815 7.784 87.7575 8.096 87.2655 8.504L87.7335 9.356C88.2255 9.008 88.8375 8.768 89.4375 8.768C90.1935 8.768 90.7695 9.104 90.7695 10.1V10.22H90.4575C89.1975 10.22 86.8335 10.436 86.8335 12.344ZM87.9975 12.248C87.9975 11.132 89.6055 11.06 90.4695 11.06H90.7695V11.288C90.7695 12.188 90.1575 13.22 89.1375 13.22C88.3815 13.22 87.9975 12.728 87.9975 12.248ZM92.9579 14H94.2539L95.8499 11.408H96.7139V14H97.8179V11.408H98.6939L100.278 14H101.586L99.6299 10.88V10.856L101.406 7.928H100.182L98.6819 10.412H97.8179V7.928H96.7139V10.412H95.8499L94.3619 7.928H93.1259L94.9139 10.856V10.88L92.9579 14ZM102.677 14H103.793L106.421 10.376C106.613 10.088 106.913 9.68 106.949 9.572H106.973C106.973 9.668 106.937 10.088 106.937 10.376V14H108.065V7.928H106.937L104.321 11.552C104.117 11.84 103.829 12.26 103.781 12.368H103.757C103.769 12.308 103.793 11.876 103.793 11.552V7.928H102.677V14ZM111.313 14H112.465V8.924H114.589V7.928H109.201V8.924H111.313V14ZM115.732 14H116.848L119.476 10.376C119.668 10.088 119.968 9.68 120.004 9.572H120.028C120.028 9.668 119.992 10.088 119.992 10.376V14H121.12V7.928H119.992L117.376 11.552C117.172 11.84 116.884 12.26 116.836 12.368H116.812C116.824 12.308 116.848 11.876 116.848 11.552V7.928H115.732V14ZM125.316 13.256C125.82 13.736 126.612 14.144 127.548 14.144C128.796 14.144 129.876 13.508 129.876 12.26C129.876 11.48 129.396 11.024 128.784 10.832V10.808C129.264 10.604 129.672 10.184 129.672 9.428C129.672 8.348 128.772 7.784 127.62 7.784C126.66 7.784 125.976 8.096 125.508 8.444L125.94 9.224C126.408 8.876 126.888 8.696 127.416 8.696C128.088 8.696 128.496 9.008 128.496 9.572C128.496 10.184 128.028 10.448 127.344 10.448H126.708V11.288H127.452C128.304 11.288 128.7 11.624 128.7 12.212C128.7 12.872 128.136 13.208 127.44 13.208C126.708 13.208 126.132 12.776 125.856 12.488L125.316 13.256Z" fill="#31353D"/>
<path d="M25.199 19.024C25.183 16.0744 26.5122 13.8481 29.2027 12.2085C27.6973 10.0465 25.4232 8.85697 22.4205 8.62389C19.5779 8.39885 16.471 10.2876 15.334 10.2876C14.1329 10.2876 11.3784 8.70426 9.21642 8.70426C4.74834 8.7766 0 12.2808 0 19.4098C0 21.5155 0.384351 23.6936 1.15305 25.936C2.17799 28.8856 5.87737 36.1191 9.7369 35.9985C11.7547 35.9503 13.18 34.5599 15.8064 34.5599C18.3528 34.5599 19.674 35.9985 21.924 35.9985C25.8156 35.9423 29.1626 29.3678 30.1395 26.4102C24.9188 23.9427 25.199 19.1767 25.199 19.024V19.024ZM20.6669 5.82695C22.8529 3.22291 22.6527 0.851941 22.5886 0C20.6589 0.11252 18.4248 1.3181 17.1517 2.80497C15.7504 4.39634 14.9256 6.36544 15.1018 8.5837C17.1917 8.74445 19.0974 7.66747 20.6669 5.82695V5.82695Z" fill="#31353D"/>
</svg>
