<svg width="42" height="42" viewBox="0 0 42 42" fill="none" xmlns="http://www.w3.org/2000/svg">
<rect width="42" height="42" rx="10" fill="#81E15B"/>
<path d="M27.5249 23.875H17.3463L17.5735 25.0625H26.8936C27.4283 25.0625 27.8247 25.5932 27.7062 26.1505L27.5146 27.0514C28.1636 27.3881 28.6111 28.0991 28.6111 28.9219C28.6111 30.0798 27.725 31.0165 26.6381 30.9998C25.6025 30.9839 24.7509 30.0857 24.723 28.9793C24.7077 28.3749 24.9342 27.8271 25.3064 27.4375H18.0269C18.3873 27.8147 18.6111 28.3402 18.6111 28.9219C18.6111 30.1024 17.69 31.0531 16.574 30.9977C15.583 30.9485 14.777 30.0928 14.725 29.034C14.6848 28.2163 15.0873 27.4956 15.699 27.1197L13.2598 14.375H10.8333C10.3731 14.375 10 13.9763 10 13.4844V12.8906C10 12.3987 10.3731 12 10.8333 12H14.3934C14.7892 12 15.1305 12.2977 15.2098 12.7121L15.5281 14.375H29.1663C29.7011 14.375 30.0974 14.9057 29.9789 15.463L28.3375 23.1818C28.2513 23.5873 27.914 23.875 27.5249 23.875ZM23.9941 19.125H22.5V16.8984C22.5 16.6525 22.3134 16.4531 22.0833 16.4531H21.25C21.0199 16.4531 20.8333 16.6525 20.8333 16.8984V19.125H19.3393C18.9681 19.125 18.7822 19.6047 19.0447 19.8852L21.3721 22.3726C21.5348 22.5465 21.7986 22.5465 21.9613 22.3726L24.2887 19.8852C24.5512 19.6047 24.3653 19.125 23.9941 19.125Z" fill="#31353D"/>
</svg>
