<svg width="108" height="108" viewBox="0 0 108 108" fill="none" xmlns="http://www.w3.org/2000/svg">
<circle cx="54" cy="54" r="54" fill="url(#paint0_linear)"/>
<path d="M56.1049 32.0009H48.57C47.9587 32.0009 47.4586 32.501 47.4586 33.1122C47.4586 33.7234 47.9587 34.2236 48.57 34.2236H56.1049C56.7162 34.2236 57.2163 33.7234 57.2163 33.1122C57.2163 32.501 56.7273 32.0009 56.1049 32.0009Z" fill="white"/>
<path d="M52.3374 70.2646C50.437 70.2646 48.9034 71.7983 48.9034 73.6987C48.9145 75.588 50.4482 77.1328 52.3486 77.1328C54.2379 77.1328 55.7715 75.5991 55.7715 73.6987C55.7715 71.7983 54.2379 70.2646 52.3374 70.2646ZM52.3374 74.9212C51.6706 74.9212 51.1261 74.3766 51.1261 73.7098C51.1372 73.0319 51.6818 72.4985 52.3486 72.4985C53.0154 72.4985 53.5488 73.043 53.5488 73.7098C53.5488 74.3766 53.0043 74.9212 52.3374 74.9212Z" fill="white"/>
<path d="M76.0981 43.0032H67.3407V32.5676C67.3407 30.0449 65.3069 28 62.7842 28H62.7731H41.913C39.3903 28 37.3343 30.0449 37.3343 32.5676V75.4324C37.3343 77.9551 39.3903 80.0111 41.913 80H62.7619C65.2847 80 67.3296 77.9662 67.3296 75.4435V75.4324V65.0079H76.087C78.6209 65.0079 80.6658 62.9075 80.6658 60.3736V47.6375C80.6769 45.1037 78.6209 43.0032 76.0981 43.0032ZM39.557 32.5676C39.557 31.2674 40.6128 30.2116 41.913 30.2227C41.913 30.2227 41.913 30.2227 41.9242 30.2227H62.7731C64.0622 30.2227 65.118 31.2674 65.118 32.5565C65.118 32.5676 65.118 32.5676 65.118 32.5788V36.6796H39.557V32.5676ZM65.118 75.4435C65.118 76.7326 64.0844 77.7884 62.7842 77.7884C62.7731 77.7884 62.7731 77.7884 62.7619 77.7884H41.913C40.6128 77.7884 39.557 76.7437 39.557 75.4435C39.557 75.4435 39.557 75.4435 39.557 75.4324V69.5644H65.118V75.4435ZM65.118 67.3417H39.557V38.8912H65.118V43.0032H52.9265C50.3926 43.0032 48.3366 45.1037 48.3366 47.6375V60.3847C48.3366 62.9186 50.3926 65.019 52.9265 65.019H65.118V67.3417ZM78.4653 60.3069H78.4542C78.4542 61.6072 77.3984 62.6741 76.087 62.6741H52.9265C51.6262 62.6741 50.5593 61.6183 50.5593 60.3069V47.5931C50.5593 46.2928 51.6151 45.2259 52.9265 45.2259H76.0981C77.3984 45.2259 78.4653 46.2817 78.4653 47.5931V60.3069Z" fill="white"/>
<path d="M68.8521 58.1176H52.6375C52.0263 58.1176 51.5262 58.6177 51.5262 59.2289C51.5262 59.8401 52.0263 60.3403 52.6375 60.3403H68.8521C69.4634 60.3403 69.9635 59.8401 69.9635 59.2289C69.9635 58.6177 69.4634 58.1176 68.8521 58.1176Z" fill="white"/>
<path d="M60.717 48.6821C59.6168 48.0042 58.2276 48.0042 57.1274 48.6821C55.5048 47.693 53.3932 48.1932 52.4041 49.8157C51.415 51.4383 51.9151 53.5498 53.5377 54.5389C54.0712 54.8724 54.6824 55.0502 55.327 55.0502C55.9605 55.0502 56.5828 54.8724 57.1274 54.5389C58.7499 55.528 60.8615 55.0279 61.8506 53.4054C62.8397 51.7828 62.3396 49.6712 60.717 48.6821ZM58.9278 52.8275C58.561 52.8275 58.2276 52.6608 57.9942 52.3829C57.6053 51.9051 56.9051 51.8384 56.4272 52.2162C56.3717 52.2607 56.3161 52.3163 56.2605 52.3829C56.0271 52.6608 55.6826 52.8275 55.327 52.8275C54.6602 52.8275 54.1156 52.2829 54.1156 51.6161C54.1045 50.9493 54.6491 50.4047 55.327 50.4047C55.6937 50.4047 56.0382 50.5714 56.2605 50.8493C56.4717 51.1049 56.794 51.2605 57.1274 51.2605C57.4608 51.2605 57.7831 51.1049 57.9942 50.8493C58.2165 50.5714 58.561 50.4047 58.9278 50.4047C59.5946 50.4047 60.1391 50.9493 60.1391 51.6161C60.1391 52.2829 59.5946 52.8275 58.9278 52.8275Z" fill="white"/>
<defs>
<linearGradient id="paint0_linear" x1="73" y1="-9.5533e-07" x2="54" y2="108" gradientUnits="userSpaceOnUse">
<stop stop-color="#FFD600"/>
<stop offset="1" stop-color="#FFA06B"/>
</linearGradient>
</defs>
</svg>
