<svg width="14" height="14" viewBox="0 0 14 14" fill="none" xmlns="http://www.w3.org/2000/svg">
<g clip-path="url(#clip0)">
<path fill-rule="evenodd" clip-rule="evenodd" d="M7.4416 3.50004C7.3191 3.50004 7.19777 3.44929 7.11085 3.34954C6.95277 3.16696 6.97202 2.89046 7.1546 2.73237C7.2526 2.64721 7.30044 2.54046 7.28994 2.43079C7.27885 2.31237 7.19952 2.20212 7.07235 2.12862C6.69727 1.91162 6.46044 1.55579 6.42194 1.15212C6.3846 0.759539 6.5421 0.378623 6.85477 0.106789C7.03735 -0.0518774 7.31327 -0.0326274 7.47194 0.150539C7.63002 0.333123 7.61077 0.609623 7.42819 0.767706C7.33019 0.852873 7.28235 0.959623 7.29285 1.06929C7.30394 1.18771 7.38327 1.29796 7.51044 1.37146C7.88552 1.58846 8.12235 1.94429 8.16085 2.34796C8.19819 2.74054 8.04069 3.12146 7.72802 3.39329C7.64519 3.46446 7.54369 3.50004 7.4416 3.50004ZM4.52491 3.49998C4.40241 3.49998 4.28108 3.44923 4.19416 3.34948C4.03608 3.1669 4.05533 2.8904 4.23791 2.73232C4.33591 2.64715 4.38375 2.5404 4.37325 2.43073C4.36275 2.31232 4.28283 2.20207 4.15625 2.12857C3.78058 1.91157 3.54375 1.55573 3.50525 1.15207C3.46791 0.759483 3.62541 0.378567 3.93808 0.107317C4.12066 -0.0519333 4.39658 -0.0326833 4.55583 0.150483C4.71391 0.333067 4.69466 0.609567 4.51208 0.76765C4.41408 0.852817 4.36625 0.959567 4.37675 1.06923C4.38783 1.18765 4.46716 1.2979 4.59433 1.3714C4.96941 1.5884 5.20625 1.94423 5.24475 2.3479C5.28208 2.74048 5.12458 3.1214 4.81191 3.39323C4.7285 3.4644 4.627 3.49998 4.52491 3.49998ZM1.60417 14H10.0625C10.9474 14 11.6667 13.2808 11.6667 12.3958V11.8125C11.6667 11.571 11.4707 11.375 11.2292 11.375H0.4375C0.196 11.375 0 11.571 0 11.8125V12.3958C0 13.2808 0.71925 14 1.60417 14ZM2.21205 10.7917H9.46114C9.78022 10.4878 10.0626 10.143 10.2982 9.76092C10.3134 9.74284 10.3268 9.72359 10.3391 9.70318C10.8261 8.88709 11.0834 7.95201 11.0834 7.00001V4.81251C11.0834 4.57101 10.8874 4.37501 10.6459 4.37501H1.02089C0.779385 4.37501 0.583385 4.57101 0.583385 4.81251V7.00001C0.583385 8.49043 1.21105 9.83501 2.21205 10.7917ZM11.6666 6.56248V5.39582C12.9535 5.39582 14 6.44232 14 7.72915C14 8.35973 13.7556 8.94598 13.3122 9.38173C12.8835 9.81807 12.2972 10.0625 11.6666 10.0625H10.7992C10.8032 10.0567 10.8072 10.051 10.8112 10.0454C10.8213 10.031 10.8313 10.0169 10.8401 10.0018C11.0489 9.6524 11.207 9.27848 11.3382 8.89582H11.6666C11.9816 8.89582 12.2727 8.77565 12.4874 8.5569C12.7131 8.33523 12.8333 8.04415 12.8333 7.72915C12.8333 7.08573 12.3101 6.56248 11.6666 6.56248Z" fill="#31353D"/>
</g>
<defs>
<clipPath id="clip0">
<rect width="14" height="14" fill="white"/>
</clipPath>
</defs>
</svg>
