<svg width="32" height="32" viewBox="0 0 32 32" fill="none" xmlns="http://www.w3.org/2000/svg">
<rect x="0.5" y="0.5" width="31" height="31" rx="9.5" stroke="#81E15B"/>
<path d="M22.5589 19.4393C21.8636 18.744 21 17.8787 21 14.5C21 12.0189 19.1928 9.96034 16.823 9.56781C16.9385 9.40101 17.0003 9.20289 17 9C17 8.44772 16.5523 8 16 8C15.4477 8 15 8.44772 15 9C15 9.21094 15.0655 9.4065 15.177 9.56781C12.8072 9.96034 11 12.0189 11 14.5C11 17.8787 10.1362 18.744 9.44084 19.4393C8.49868 20.3815 9.1664 22 10.5015 22H14C14 23.1046 14.8954 24 16 24C17.1046 24 18 23.1046 18 22H21.4982C22.8307 22 23.5029 20.3834 22.5589 19.4393Z" fill="#31353D"/>
</svg>
