<svg width="18" height="12" viewBox="0 0 18 12" fill="none" xmlns="http://www.w3.org/2000/svg">
<path d="M17.7923 4.98846C16.0303 1.9984 12.7441 0 9 0C5.25438 0 1.96889 1.99981 0.207702 4.98846C0.0717174 5.21921 0 5.48217 0 5.75001C0 6.01785 0.0717174 6.2808 0.207702 6.51155C1.96973 9.50158 5.25594 11.5 9 11.5C12.7456 11.5 16.0311 9.50017 17.7923 6.51152C17.9283 6.28077 18 6.01783 18 5.74999C18 5.48216 17.9283 5.21921 17.7923 4.98846ZM9 9.99998C6.65119 9.99998 4.75001 8.09914 4.75001 5.74999C4.75001 3.40118 6.65082 1.5 9 1.5C11.3488 1.5 13.25 3.40081 13.25 5.74999C13.25 8.0988 11.3492 9.99998 9 9.99998ZM12.25 5.74999C12.25 7.54492 10.7949 8.99998 9 8.99998C7.20507 8.99998 5.75001 7.54492 5.75001 5.74999C5.75001 5.19662 5.88847 4.67565 6.13238 4.21959L6.13235 4.22059C6.13235 4.95968 6.7315 5.5588 7.4706 5.5588C8.20969 5.5588 8.80884 4.95965 8.80884 4.22059C8.80884 3.48149 8.20969 2.88234 7.4706 2.88234L7.4696 2.88237C7.92566 2.63846 8.44663 2.5 9 2.5C10.7949 2.5 12.25 3.95506 12.25 5.74999Z" fill="black"/>
</svg>
