<svg width="160" height="36" viewBox="0 0 160 36" fill="none" xmlns="http://www.w3.org/2000/svg">
<path d="M50.8238 23.4825C50.8238 27.5651 53.7714 30.2197 57.1949 30.2197C58.6778 30.2197 60.1242 29.6522 60.9663 28.8283H61.0029C61.0029 28.8283 60.9846 29.1029 60.9846 29.3775V30H62.9985V23.1529H58.8792V25.1851H60.8748V26.7046C60.0143 27.5285 58.8243 28.0594 57.616 28.0594C55.1811 28.0594 53.2588 26.2103 53.2588 23.4092C53.2588 20.9926 54.8149 18.9422 57.7258 18.9422C58.9525 18.9422 60.3805 19.4731 61.186 20.1871L62.3577 18.4295C61.0212 17.2762 59.2271 16.7818 57.5245 16.7818C53.6615 16.7818 50.8238 19.7111 50.8238 23.4825ZM64.6942 25.3315C64.6942 28.2058 66.9827 30.2197 69.8204 30.2197C72.6581 30.2197 74.9465 28.2058 74.9465 25.3315C74.9465 22.4755 72.6581 20.4434 69.8021 20.4434C66.9827 20.4434 64.6942 22.4755 64.6942 25.3315ZM67.0559 25.3315C67.0559 23.6106 68.3008 22.4206 69.8204 22.4206C71.3399 22.4206 72.6031 23.6106 72.6031 25.3315C72.6031 27.0708 71.3399 28.2425 69.8204 28.2425C68.3008 28.2425 67.0559 27.0708 67.0559 25.3315ZM76.2974 25.3315C76.2974 28.2058 78.5859 30.2197 81.4236 30.2197C84.2613 30.2197 86.5497 28.2058 86.5497 25.3315C86.5497 22.4755 84.2613 20.4434 81.4053 20.4434C78.5859 20.4434 76.2974 22.4755 76.2974 25.3315ZM78.6591 25.3315C78.6591 23.6106 79.904 22.4206 81.4236 22.4206C82.9431 22.4206 84.2063 23.6106 84.2063 25.3315C84.2063 27.0708 82.9431 28.2425 81.4236 28.2425C79.904 28.2425 78.6591 27.0708 78.6591 25.3315ZM89.53 31.2632L88.816 33.0391C89.7314 33.5151 90.9763 33.8446 92.148 33.8446C94.5829 33.8446 97.0728 32.6363 97.0728 29.4325V20.6631H94.8759V21.4137C94.8759 21.5602 94.9125 21.67 94.9125 21.67H94.8576C94.2351 20.8095 93.1183 20.4434 92.0748 20.4434C89.3836 20.4434 87.9556 22.5305 87.9556 25.0935C87.9556 27.6566 89.4568 29.8169 92.1297 29.8169C93.3746 29.8169 94.1985 29.3409 94.7477 28.5171H94.7843C94.7843 28.5171 94.7477 28.7917 94.7477 29.0114V29.5972C94.7477 31.2632 93.5394 31.8674 92.1114 31.8674C91.196 31.8674 90.2806 31.6294 89.53 31.2632ZM90.2989 25.0203C90.2989 23.4458 91.0862 22.4206 92.4959 22.4206C93.7408 22.4206 94.8026 22.9882 94.8026 25.1118C94.8026 27.2172 93.7408 27.858 92.6423 27.858C91.1228 27.858 90.2989 26.6497 90.2989 25.0203ZM99.5708 27.0891C99.5708 29.762 101.164 30.0915 102.445 30.0915C102.756 30.0915 103.013 30.0549 103.177 30.0366V28.0045C103.049 28.0228 102.921 28.0228 102.83 28.0228C102.225 28.0228 101.878 27.7665 101.878 26.7412V17.0015H99.5708V27.0891ZM104.295 25.3315C104.295 27.9862 106.236 30.2197 109.33 30.2197C110.666 30.2197 112.131 29.7254 113.083 28.8832L112.168 27.2172C111.417 27.8214 110.447 28.2425 109.495 28.2425C108.085 28.2425 106.84 27.4003 106.694 25.7709H113.12C113.156 25.478 113.193 25.1668 113.193 24.8738C113.193 22.4023 111.728 20.4434 109.055 20.4434C106.254 20.4434 104.295 22.4572 104.295 25.3315ZM106.749 24.1782C106.968 22.9882 107.81 22.2009 109 22.2009C110.044 22.2009 110.849 22.9332 110.868 24.1782H106.749ZM120.032 30H122.393V25.5146H125.048C127.483 25.5146 129.185 23.7571 129.185 21.2306C129.185 18.7042 127.483 17.0015 125.048 17.0015H120.032V30ZM122.393 23.4642V19.0337H124.645C125.982 19.0337 126.787 19.8942 126.787 21.2306C126.787 22.5854 125.982 23.4642 124.609 23.4642H122.393ZM130.966 27.0891C130.966 29.762 132.558 30.0915 133.84 30.0915C134.151 30.0915 134.407 30.0549 134.572 30.0366V28.0045C134.444 28.0228 134.316 28.0228 134.224 28.0228C133.62 28.0228 133.272 27.7665 133.272 26.7412V17.0015H130.966V27.0891ZM135.544 27.4186C135.544 29.1212 136.935 30.2197 138.619 30.2197C139.883 30.2197 140.999 29.524 141.567 28.5354H141.604C141.604 28.5354 141.549 28.8283 141.549 29.2128V30H143.709V24.1598C143.709 21.7982 142.263 20.4434 139.828 20.4434C138.436 20.4434 136.935 20.9743 136.166 21.5968L137.027 23.2628C137.777 22.7502 138.711 22.3657 139.626 22.3657C140.597 22.3657 141.384 22.7868 141.384 24.0134V24.1415H140.981C138.912 24.1415 135.544 24.6175 135.544 27.4186ZM137.85 27.2172C137.85 25.8991 139.828 25.7343 140.999 25.7343H141.402V25.9906C141.402 27.1257 140.56 28.4438 139.26 28.4438C138.326 28.4438 137.85 27.8397 137.85 27.2172ZM145.674 31.5012L144.905 33.2405C144.905 33.2405 145.729 33.8446 146.846 33.8446C148.219 33.8446 149.574 33.1123 150.214 31.4097L154.37 20.6631H151.844L150.013 26.0822C149.867 26.5765 149.702 27.3088 149.702 27.3088H149.665C149.665 27.3088 149.5 26.5398 149.317 26.0455L147.358 20.6631H144.74L148.677 29.8535L148.329 30.6774C147.981 31.5012 147.34 31.8857 146.699 31.8857C146.187 31.8857 145.674 31.5012 145.674 31.5012Z" fill="#31353D"/>
<path d="M50.324 9.992C50.984 10.724 52.052 11.144 53.072 11.144C54.668 11.144 55.952 10.172 55.952 8.6C55.952 7.556 55.352 6.824 54.464 6.572V6.548C55.064 6.248 55.688 5.672 55.688 4.64C55.688 3.224 54.596 2.384 53.144 2.384C52.424 2.384 51.476 2.516 50.576 3.26L51.08 4.148C51.704 3.62 52.376 3.428 52.976 3.428C54.02 3.428 54.476 4.052 54.476 4.784C54.476 5.588 53.804 6.152 52.952 6.152H52.112V7.136H53.156C54.08 7.136 54.74 7.652 54.74 8.54C54.74 9.5 54.008 10.076 52.976 10.076C52.184 10.076 51.428 9.668 50.984 9.188L50.324 9.992ZM56.9468 9.344C56.9468 10.484 57.9188 11.144 58.9748 11.144C59.8748 11.144 60.6188 10.604 60.9668 9.908H60.9908C60.9908 9.908 60.9548 10.112 60.9548 10.388V11H62.0468V7.16C62.0468 5.624 61.1708 4.784 59.6468 4.784C58.7948 4.784 57.8708 5.096 57.3788 5.504L57.8468 6.356C58.3388 6.008 58.9508 5.768 59.5508 5.768C60.3068 5.768 60.8828 6.104 60.8828 7.1V7.22H60.5708C59.3108 7.22 56.9468 7.436 56.9468 9.344ZM58.1108 9.248C58.1108 8.132 59.7188 8.06 60.5828 8.06H60.8828V8.288C60.8828 9.188 60.2708 10.22 59.2508 10.22C58.4948 10.22 58.1108 9.728 58.1108 9.248ZM63.7672 11H66.3592C67.6792 11 68.5912 10.4 68.5912 9.272C68.5912 8.6 68.1952 8.012 67.4392 7.832V7.82C67.9912 7.58 68.3032 7.076 68.3032 6.488C68.3032 5.468 67.4992 4.928 66.2752 4.928H63.7672V11ZM64.9312 7.496V5.732H66.0352C66.7672 5.732 67.1152 6.02 67.1152 6.572C67.1152 7.136 66.7672 7.496 66.0712 7.496H64.9312ZM64.9312 10.184V8.276H66.1672C66.9712 8.276 67.4152 8.636 67.4152 9.236C67.4152 9.8 67.0192 10.184 66.1792 10.184H64.9312ZM69.4976 9.344C69.4976 10.484 70.4696 11.144 71.5256 11.144C72.4256 11.144 73.1696 10.604 73.5176 9.908H73.5416C73.5416 9.908 73.5056 10.112 73.5056 10.388V11H74.5976V7.16C74.5976 5.624 73.7216 4.784 72.1976 4.784C71.3456 4.784 70.4216 5.096 69.9296 5.504L70.3976 6.356C70.8896 6.008 71.5016 5.768 72.1016 5.768C72.8576 5.768 73.4336 6.104 73.4336 7.1V7.22H73.1216C71.8616 7.22 69.4976 7.436 69.4976 9.344ZM70.6616 9.248C70.6616 8.132 72.2696 8.06 73.1336 8.06H73.4336V8.288C73.4336 9.188 72.8216 10.22 71.8016 10.22C71.0456 10.22 70.6616 9.728 70.6616 9.248ZM76.318 11H77.482V8.396H80.554V11H81.718V4.928H80.554V7.4H77.482V4.928H76.318V11ZM84.9773 11H86.1293V5.924H88.2533V4.928H82.8653V5.924H84.9773V11ZM88.8335 9.344C88.8335 10.484 89.8055 11.144 90.8615 11.144C91.7615 11.144 92.5055 10.604 92.8535 9.908H92.8775C92.8775 9.908 92.8415 10.112 92.8415 10.388V11H93.9335V7.16C93.9335 5.624 93.0575 4.784 91.5335 4.784C90.6815 4.784 89.7575 5.096 89.2655 5.504L89.7335 6.356C90.2255 6.008 90.8375 5.768 91.4375 5.768C92.1935 5.768 92.7695 6.104 92.7695 7.1V7.22H92.4575C91.1975 7.22 88.8335 7.436 88.8335 9.344ZM89.9975 9.248C89.9975 8.132 91.6055 8.06 92.4695 8.06H92.7695V8.288C92.7695 9.188 92.1575 10.22 91.1375 10.22C90.3815 10.22 89.9975 9.728 89.9975 9.248ZM94.9579 11H96.2539L97.8499 8.408H98.7139V11H99.8179V8.408H100.694L102.278 11H103.586L101.63 7.88V7.856L103.406 4.928H102.182L100.682 7.412H99.8179V4.928H98.7139V7.412H97.8499L96.3619 4.928H95.1259L96.9139 7.856V7.88L94.9579 11ZM104.677 11H105.793L108.421 7.376C108.613 7.088 108.913 6.68 108.949 6.572H108.973C108.973 6.668 108.937 7.088 108.937 7.376V11H110.065V4.928H108.937L106.321 8.552C106.117 8.84 105.829 9.26 105.781 9.368H105.757C105.769 9.308 105.793 8.876 105.793 8.552V4.928H104.677V11ZM113.313 11H114.465V5.924H116.589V4.928H111.201V5.924H113.313V11ZM117.732 11H118.848L121.476 7.376C121.668 7.088 121.968 6.68 122.004 6.572H122.028C122.028 6.668 121.992 7.088 121.992 7.376V11H123.12V4.928H121.992L119.376 8.552C119.172 8.84 118.884 9.26 118.836 9.368H118.812C118.824 9.308 118.848 8.876 118.848 8.552V4.928H117.732V11ZM127.316 10.256C127.82 10.736 128.612 11.144 129.548 11.144C130.796 11.144 131.876 10.508 131.876 9.26C131.876 8.48 131.396 8.024 130.784 7.832V7.808C131.264 7.604 131.672 7.184 131.672 6.428C131.672 5.348 130.772 4.784 129.62 4.784C128.66 4.784 127.976 5.096 127.508 5.444L127.94 6.224C128.408 5.876 128.888 5.696 129.416 5.696C130.088 5.696 130.496 6.008 130.496 6.572C130.496 7.184 130.028 7.448 129.344 7.448H128.708V8.288H129.452C130.304 8.288 130.7 8.624 130.7 9.212C130.7 9.872 130.136 10.208 129.44 10.208C128.708 10.208 128.132 9.776 127.856 9.488L127.316 10.256Z" fill="#31353D"/>
<path d="M20.8038 16.4774L5.49914 0.914241L24.9715 12.2508L20.8038 16.4774V16.4774ZM1.50481 0C0.603311 0.478218 -5.29069e-08 1.35026 -5.29069e-08 2.48252V33.5175C-5.29069e-08 34.6497 0.603311 35.5218 1.50481 36L19.299 17.9965L1.50481 0ZM30.9908 15.8656L26.9063 13.4675L22.3502 18.0035L26.9063 22.5396L31.074 20.1414C32.3222 19.1358 32.3222 16.8713 30.9908 15.8656V15.8656ZM5.49914 35.0928L24.9715 23.7562L20.8038 19.5296L5.49914 35.0928Z" fill="#31353D"/>
</svg>
