<svg width="19" height="22" viewBox="0 0 19 22" fill="none" xmlns="http://www.w3.org/2000/svg">
<path d="M18.4742 15.4205L15.6677 13.7958L18.1738 13.3605C18.4202 13.3025 18.621 13.142 18.7411 12.9334C18.8457 12.7519 18.8889 12.5339 18.8475 12.3158C18.7586 11.8473 18.3128 11.5554 17.8518 11.6638L14.2507 12.9755L10.7882 11.208L14.2507 9.44059L17.8518 10.7523C18.3128 10.8607 18.7587 10.5688 18.8476 10.1002C18.9366 9.63168 18.6349 9.16401 18.1739 9.05558L15.6678 8.62024L18.4743 6.99556C18.8764 6.76273 19.006 6.23287 18.7637 5.81207C18.5214 5.39128 17.999 5.23892 17.5969 5.47171L14.7904 7.09639L15.6674 4.70249C15.8043 4.24797 15.5512 3.75222 15.102 3.59515C14.6529 3.43812 14.1779 3.67933 14.041 4.13385L13.3734 7.9167L10.3203 9.68412V6.14932L13.2537 3.67811C13.5779 3.33201 13.5487 2.79891 13.1885 2.48742C12.8282 2.17585 12.2735 2.20401 11.9493 2.55006L10.3203 4.50862V1.25925C10.3203 0.7936 9.92747 0.416138 9.44289 0.416138C8.95831 0.416138 8.5655 0.7936 8.5655 1.25925V4.50862L6.93643 2.55006C6.6123 2.20396 6.05753 2.17589 5.69731 2.48742C5.33713 2.79891 5.30796 3.33201 5.63209 3.67811L8.5655 6.14932V9.68421L5.51245 7.91679L4.84479 4.1339C4.70791 3.67937 4.2329 3.43816 3.78377 3.59519C3.33456 3.75222 3.0815 4.24801 3.21834 4.70254L4.09539 7.09643L1.28895 5.47175C0.886786 5.23892 0.36435 5.39132 0.122081 5.81212C-0.120188 6.23292 0.0093983 6.76277 0.411564 6.9956L3.21804 8.62028L0.711924 9.05567C0.250951 9.16409 -0.0506736 9.63177 0.0382329 10.1003C0.127182 10.5688 0.573021 10.8607 1.03404 10.7523L4.63507 9.44063L8.09753 11.208L4.63502 12.9754L1.03395 11.6638C0.572936 11.5553 0.127139 11.8472 0.0381486 12.3157C-0.0507579 12.7842 0.250866 13.252 0.71184 13.3604L3.21796 13.7958L0.41148 15.4205C0.0093983 15.6533 -0.120231 16.1831 0.122081 16.6039C0.364392 17.0247 0.886786 17.1771 1.28895 16.9443L4.09543 15.3196L3.21838 17.7135C3.14524 17.9565 3.18347 18.2111 3.30353 18.4196C3.40808 18.6012 3.57472 18.7478 3.78377 18.8208C4.23294 18.9779 4.70795 18.7367 4.84479 18.2821L5.51245 14.4992L8.5655 12.7318V16.2667L5.63209 18.7379C5.30791 19.084 5.33713 19.6171 5.69731 19.9286C6.05748 20.2401 6.6123 20.212 6.93643 19.8659L8.5655 17.9074V21.1568C8.5655 21.6224 8.95831 21.9999 9.44289 21.9999C9.92747 21.9999 10.3203 21.6224 10.3203 21.1568V17.9074L11.9493 19.8659C12.1226 20.0509 12.3617 20.145 12.6018 20.145C12.8109 20.145 13.0208 20.0736 13.1885 19.9286C13.5487 19.6171 13.5779 19.084 13.2537 18.7379L10.3203 16.2667V12.7318L13.3733 14.4992L14.041 18.2821C14.1778 18.7367 14.6528 18.9779 15.102 18.8208C15.551 18.6638 15.8042 18.168 15.6674 17.7135L14.7903 15.3196L17.5968 16.9443C17.9989 17.1771 18.5214 17.0247 18.7636 16.6039C19.006 16.1831 18.8764 15.6533 18.4742 15.4205Z" fill="#31353D"/>
</svg>
