<svg width="16" height="12" viewBox="0 0 16 12" fill="none" xmlns="http://www.w3.org/2000/svg">
<g clip-path="url(#clip0)">
<path d="M8.01681 7.70137C5.8779 7.70137 3.87372 7.51231 2.32428 7.15137L1.86955 10.7264C1.80218 11.2076 2.13901 11.6545 2.61058 11.7233C3.55373 11.8436 4.93476 11.9467 6.14737 11.9983C6.45053 12.0155 6.73683 11.8952 6.95578 11.6717L7.34314 11.2764C7.54525 11.0701 7.81471 10.9498 8.10102 10.9498C8.38734 10.9498 8.6568 11.0701 8.85891 11.2764L9.22943 11.6717C9.44837 11.8952 9.73468 12.0155 10.0378 11.9983C11.1831 11.9467 12.5305 11.8608 13.4399 11.7405C13.9115 11.6717 14.2483 11.242 14.1809 10.7608L13.7262 7.18574C12.1599 7.49512 10.1389 7.70137 8.01681 7.70137ZM6.58526 9.90139C6.2821 10.1248 5.77685 10.417 5.20422 10.417C4.63161 10.417 4.12635 10.1248 3.8232 9.90139C3.65477 9.78107 3.65477 9.52326 3.8232 9.40295C4.12635 9.17951 4.63161 8.88732 5.20422 8.88732C5.77685 8.88732 6.2821 9.17951 6.58526 9.40295C6.73683 9.52326 6.73683 9.78107 6.58526 9.90139ZM12.1936 9.90139C11.8905 10.1248 11.3852 10.417 10.8126 10.417C10.2399 10.417 9.73469 10.1248 9.43153 9.90139C9.26311 9.78107 9.26311 9.52326 9.43153 9.40295C9.73469 9.17951 10.2399 8.88732 10.8126 8.88732C11.3852 8.88732 11.8905 9.17951 12.1936 9.40295C12.362 9.52326 12.362 9.78107 12.1936 9.90139Z" fill="#31353D"/>
<path d="M13.6251 3.628L13.7935 4.33269C13.8439 4.53895 13.7092 4.7452 13.5072 4.79676C13.3051 4.84832 13.1029 4.71082 13.0524 4.50457L12.2609 1.06704C12.0925 0.327976 11.3682 -0.13609 10.644 0.035786L9.21249 0.379539C8.42092 0.568603 7.59567 0.568603 6.80411 0.379539L5.37254 0.035786C4.64835 -0.13609 3.92415 0.327976 3.75573 1.06704L2.96416 4.50457C2.91364 4.71082 2.71154 4.84832 2.50943 4.79676C2.30733 4.7452 2.1726 4.53895 2.22313 4.33269L2.39154 3.628C0.909459 3.97175 0 4.45301 0 5.00301C0 6.06865 3.58731 6.92803 7.99987 6.92803C12.4125 6.92803 15.9998 6.06865 15.9998 5.00301C16.0166 4.4702 15.1071 3.98894 13.6251 3.628Z" fill="#31353D"/>
</g>
<defs>
<clipPath id="clip0">
<rect width="16" height="12" fill="white"/>
</clipPath>
</defs>
</svg>
