<svg width="45" height="45" viewBox="0 0 45 45" fill="none" xmlns="http://www.w3.org/2000/svg">
<rect width="45" height="45" rx="14" fill="#5755D3"/>
<path d="M23.0027 16.8454C19.5974 16.8454 16.8508 19.5921 16.8508 22.9973C16.8508 26.4026 19.5974 29.1492 23.0027 29.1492C26.4079 29.1492 29.1546 26.4026 29.1546 22.9973C29.1546 19.5921 26.4079 16.8454 23.0027 16.8454ZM23.0027 26.9969C20.8021 26.9969 19.0031 25.2032 19.0031 22.9973C19.0031 20.7914 20.7968 18.9978 23.0027 18.9978C25.2086 18.9978 27.0022 20.7914 27.0022 22.9973C27.0022 25.2032 25.2032 26.9969 23.0027 26.9969ZM30.8412 16.5938C30.8412 17.3915 30.1987 18.0287 29.4062 18.0287C28.6085 18.0287 27.9713 17.3862 27.9713 16.5938C27.9713 15.8013 28.6138 15.1588 29.4062 15.1588C30.1987 15.1588 30.8412 15.8013 30.8412 16.5938ZM34.9157 18.0501C34.8247 16.1279 34.3856 14.4253 32.9775 13.0225C31.5747 11.6197 29.8721 11.1807 27.9499 11.0843C25.9689 10.9719 20.0311 10.9719 18.0501 11.0843C16.1333 11.1753 14.4307 11.6144 13.0225 13.0172C11.6144 14.42 11.1807 16.1226 11.0843 18.0447C10.9719 20.0258 10.9719 25.9635 11.0843 27.9446C11.1753 29.8667 11.6144 31.5693 13.0225 32.9721C14.4307 34.3749 16.1279 34.8139 18.0501 34.9103C20.0311 35.0228 25.9689 35.0228 27.9499 34.9103C29.8721 34.8193 31.5747 34.3803 32.9775 32.9721C34.3803 31.5693 34.8193 29.8667 34.9157 27.9446C35.0281 25.9635 35.0281 20.0311 34.9157 18.0501ZM32.3564 30.0702C31.9388 31.1196 31.1303 31.9281 30.0755 32.351C28.496 32.9775 24.7481 32.8329 23.0027 32.8329C21.2572 32.8329 17.504 32.9721 15.9298 32.351C14.8804 31.9334 14.0719 31.1249 13.649 30.0702C13.0225 28.4907 13.1671 24.7428 13.1671 22.9973C13.1671 21.2519 13.0279 17.4986 13.649 15.9245C14.0666 14.8751 14.8751 14.0666 15.9298 13.6436C17.5093 13.0172 21.2572 13.1617 23.0027 13.1617C24.7481 13.1617 28.5014 13.0225 30.0755 13.6436C31.1249 14.0612 31.9334 14.8697 32.3564 15.9245C32.9828 17.504 32.8383 21.2519 32.8383 22.9973C32.8383 24.7428 32.9828 28.496 32.3564 30.0702Z" fill="white"/>
</svg>
