<svg width="108" height="108" viewBox="0 0 108 108" fill="none" xmlns="http://www.w3.org/2000/svg">
<circle cx="54" cy="54" r="54" fill="url(#paint0_linear)"/>
<path d="M67.7746 48.1141V39.8792C67.7966 36.1531 66.3084 32.5703 63.6516 29.9576C61.083 27.4 57.7207 26 54.16 26C54.1049 26 54.0387 26 53.9836 26C46.3881 26.011 40.2147 32.2285 40.2147 39.8792V48.1141C37.3485 48.4558 35.2539 50.859 35.2539 53.7693V72.2675C35.2539 75.4094 37.7674 78 40.9092 78H67.0911C70.2329 78 72.7464 75.4094 72.7464 72.2675V53.7693C72.7354 50.87 70.6408 48.4558 67.7746 48.1141ZM42.4085 39.8792H42.4195C42.4195 33.4412 47.6118 28.1717 53.9946 28.1717H54.0057C57.0372 28.1607 59.9476 29.3623 62.0972 31.501C64.3351 33.7168 65.5808 36.7373 65.5588 39.8792V48.1251H63.1335V39.8792C63.1555 37.3767 62.1634 34.9735 60.3885 33.2097C58.7129 31.534 56.4419 30.586 54.0718 30.586H54.0057C48.9346 30.586 44.8337 34.753 44.8337 39.8681V48.1251H42.4085V39.8792ZM60.9397 39.8792V48.1251H47.0495V39.8792C47.0495 35.9767 50.1583 32.8018 54.0167 32.8018H54.0828C55.8687 32.8018 57.5884 33.5183 58.8562 34.7861C60.2011 36.131 60.9618 37.972 60.9397 39.8792ZM70.6408 72.3006C70.6408 74.2298 69.0754 75.7952 67.1462 75.7952H40.9533C39.0241 75.7952 37.4587 74.2298 37.4587 72.3006V53.8245C37.4587 51.8953 39.0241 50.3299 40.9533 50.3299H67.1462C69.0754 50.3299 70.6408 51.8953 70.6408 53.8245V72.3006Z" fill="white"/>
<defs>
<linearGradient id="paint0_linear" x1="80" y1="5" x2="34" y2="108" gradientUnits="userSpaceOnUse">
<stop stop-color="#FF4C00"/>
<stop offset="1" stop-color="#D10C53"/>
</linearGradient>
</defs>
</svg>
