<svg width="14" height="16" viewBox="0 0 14 16" fill="none" xmlns="http://www.w3.org/2000/svg">
<path fill-rule="evenodd" clip-rule="evenodd" d="M10.601 3.16216C10.601 3.50734 10.3212 3.78716 9.97603 3.78716C9.63084 3.78716 9.35103 3.50734 9.35103 3.16216V1.54306C9.35103 1.38147 9.21194 1.25 9.04094 1.25H1.56009C1.38909 1.25 1.25 1.38147 1.25 1.54306V14.457C1.25 14.6186 1.38909 14.75 1.56009 14.75H9.04094C9.21194 14.75 9.35103 14.6186 9.35103 14.457V12.8379C9.35103 12.4927 9.63084 12.2129 9.97603 12.2129C10.3212 12.2129 10.601 12.4927 10.601 12.8378V14.4569C10.601 15.3078 9.90116 16 9.04094 16H1.56009C0.699875 16 0 15.3078 0 14.4569V1.54306C0 0.692219 0.699875 0 1.56009 0H9.04094C9.90116 0 10.601 0.692219 10.601 1.54306V3.16216ZM9.92257 4.3088L13.2489 7.55258C13.4989 7.79592 13.5019 8.20114 13.2489 8.44742L9.92257 11.6912C9.67544 11.9323 9.27969 11.9272 9.03879 11.6801C8.79779 11.433 8.80276 11.0373 9.04988 10.7963L11.2764 8.62502H5.30054C4.95535 8.62502 4.67554 8.34521 4.67554 8.00002C4.67554 7.65483 4.95535 7.37502 5.30054 7.37502H11.2764L9.04988 5.20367C8.80276 4.96271 8.79779 4.56699 9.03879 4.31989C9.27972 4.07274 9.67544 4.06777 9.92257 4.3088Z" fill="#2E6EC1"/>
</svg>
