<svg width="512" height="460" viewBox="0 0 512 460" fill="none" xmlns="http://www.w3.org/2000/svg">
<path d="M0 43C0 19.2518 19.2518 0 43 0H421.46C443.334 0 461.723 16.422 464.186 38.1572L506.577 412.157C509.468 437.66 489.517 460 463.851 460H43C19.2518 460 0 440.748 0 417V43Z" fill="#81E15B"/>
<path fill-rule="evenodd" clip-rule="evenodd" d="M153.034 169.162H114.739V88.6621H152.114C161.314 88.6621 168.559 91.1921 173.159 95.7921C176.839 99.4721 178.679 103.957 178.679 109.707C178.679 118.792 173.849 123.852 168.099 127.072C177.414 130.637 183.164 136.042 183.164 147.082C183.164 161.802 171.204 169.162 153.034 169.162ZM131.989 104.187V121.207H148.319C156.139 121.207 161.084 118.677 161.084 112.467C161.084 107.177 156.944 104.187 149.469 104.187H131.989ZM131.989 135.927V153.637H153.034C160.854 153.637 165.569 150.877 165.569 144.667C165.569 139.262 161.544 135.927 152.459 135.927H131.989ZM266.617 134.087C266.617 158.467 252.932 170.427 231.312 170.427C209.692 170.427 196.467 158.352 196.467 134.662V88.6621H214.177V134.202C214.177 147.312 220.732 154.097 231.542 154.097C242.352 154.097 248.907 147.542 248.907 134.777V88.6621H266.617V134.087ZM284.656 169.162H302.366V143.402H316.051L333.531 169.162H354.231L334.566 140.412C344.801 136.617 351.816 128.452 351.816 115.457C351.816 107.637 349.401 101.312 344.916 96.8271C339.626 91.5371 331.691 88.6621 321.456 88.6621H284.656V169.162ZM302.366 127.762V104.647H319.961C328.586 104.647 333.876 108.557 333.876 116.147C333.876 123.162 328.931 127.762 320.306 127.762H302.366ZM153.034 269.298H114.739V188.798H152.114C161.314 188.798 168.559 191.328 173.159 195.928C176.839 199.608 178.679 204.093 178.679 209.843C178.679 218.928 173.849 223.988 168.099 227.208C177.414 230.773 183.164 236.178 183.164 247.218C183.164 261.938 171.204 269.298 153.034 269.298ZM131.989 204.323V221.343H148.319C156.139 221.343 161.084 218.813 161.084 212.603C161.084 207.313 156.944 204.323 149.469 204.323H131.989ZM131.989 236.063V253.773H153.034C160.854 253.773 165.569 251.013 165.569 244.803C165.569 239.398 161.544 236.063 152.459 236.063H131.989ZM231.312 270.563C252.932 270.563 266.617 258.603 266.617 234.223V188.798H248.907V234.913C248.907 247.678 242.352 254.233 231.542 254.233C220.732 254.233 214.177 247.448 214.177 234.338V188.798H196.467V234.798C196.467 258.488 209.692 270.563 231.312 270.563ZM302.366 269.298H284.656V188.798H321.456C331.691 188.798 339.626 191.673 344.916 196.963C349.401 201.448 351.816 207.773 351.816 215.593C351.816 228.588 344.801 236.753 334.566 240.548L354.231 269.298H333.531L316.051 243.538H302.366V269.298ZM302.366 204.783V227.898H320.306C328.931 227.898 333.876 223.298 333.876 216.283C333.876 208.693 328.586 204.783 319.961 204.783H302.366ZM114.739 370.477H153.034C171.204 370.477 183.164 363.117 183.164 348.397C183.164 337.357 177.414 331.952 168.099 328.387C173.849 325.167 178.679 320.107 178.679 311.022C178.679 305.272 176.839 300.787 173.159 297.107C168.559 292.507 161.314 289.977 152.114 289.977H114.739V370.477ZM131.989 322.522V305.502H149.469C156.944 305.502 161.084 308.492 161.084 313.782C161.084 319.992 156.139 322.522 148.319 322.522H131.989ZM131.989 354.952V337.242H152.459C161.544 337.242 165.569 340.577 165.569 345.982C165.569 352.192 160.854 354.952 153.034 354.952H131.989ZM266.617 335.402C266.617 359.782 252.932 371.742 231.312 371.742C209.692 371.742 196.467 359.667 196.467 335.977V289.977H214.177V335.517C214.177 348.627 220.732 355.412 231.542 355.412C242.352 355.412 248.907 348.857 248.907 336.092V289.977H266.617V335.402ZM353.985 347.076C353.985 362.985 340.214 371.912 320.597 371.912C306.826 371.912 292.925 367.677 282.012 359.093L293.835 346.618C302.019 352.57 310.594 356.346 320.987 356.346C329.171 356.346 334.108 353.485 334.108 348.564C334.108 344.1 330.99 341.811 315.79 338.378C297.472 334.258 285.65 329.794 285.65 313.657C285.65 299.122 298.901 289.508 317.479 289.508C330.73 289.508 342.033 293.17 351.257 299.694L340.864 312.97C332.809 308.049 324.884 305.073 317.219 305.073C309.554 305.073 305.527 308.163 305.527 312.283C305.527 317.548 309.424 319.265 325.144 322.813C343.592 327.047 353.985 332.884 353.985 347.076Z" fill="#31353D"/>
</svg>
