<svg width="32" height="25" viewBox="0 0 32 25" fill="none" xmlns="http://www.w3.org/2000/svg">
<path d="M26.8278 20.9611C26.8278 21.3389 26.5722 21.6111 26.2056 21.6111C25.8278 21.6111 25.5833 21.3222 25.5833 20.9611C25.5833 20.6 25.8278 20.3111 26.2056 20.3111C26.5722 20.3111 26.8278 20.6 26.8278 20.9611ZM9.56111 20.3111C9.16667 20.3111 8.93889 20.6 8.93889 20.9611C8.93889 21.3222 9.16667 21.6111 9.56111 21.6111C9.92222 21.6111 10.1667 21.3389 10.1667 20.9611C10.1611 20.6 9.92222 20.3111 9.56111 20.3111ZM16.0889 20.2944C15.7889 20.2944 15.6056 20.4889 15.5611 20.7778H16.6222C16.5722 20.4611 16.3778 20.2944 16.0889 20.2944ZM22.0778 20.3111C21.7 20.3111 21.4722 20.6 21.4722 20.9611C21.4722 21.3222 21.7 21.6111 22.0778 21.6111C22.4556 21.6111 22.7 21.3389 22.7 20.9611C22.7 20.6 22.4556 20.3111 22.0778 20.3111ZM27.9611 21.7611C27.9611 21.7778 27.9778 21.7889 27.9778 21.8222C27.9778 21.8389 27.9611 21.85 27.9611 21.8833C27.9444 21.9 27.9444 21.9111 27.9333 21.9278C27.9167 21.9444 27.9056 21.9556 27.8722 21.9556C27.8556 21.9722 27.8444 21.9722 27.8111 21.9722C27.7944 21.9722 27.7833 21.9722 27.75 21.9556C27.7333 21.9556 27.7222 21.9389 27.7056 21.9278C27.6889 21.9111 27.6778 21.9 27.6778 21.8833C27.6611 21.8556 27.6611 21.8389 27.6611 21.8222C27.6611 21.7944 27.6611 21.7778 27.6778 21.7611C27.6778 21.7333 27.6944 21.7167 27.7056 21.7C27.7222 21.6833 27.7333 21.6833 27.75 21.6722C27.7778 21.6556 27.7944 21.6556 27.8111 21.6556C27.8389 21.6556 27.8556 21.6556 27.8722 21.6722C27.9 21.6889 27.9167 21.6889 27.9333 21.7C27.95 21.7111 27.9444 21.7333 27.9611 21.7611ZM27.8389 21.8389C27.8667 21.8389 27.8667 21.8222 27.8833 21.8222C27.9 21.8056 27.9 21.7944 27.9 21.7778C27.9 21.7611 27.9 21.75 27.8833 21.7333C27.8667 21.7333 27.8556 21.7167 27.8222 21.7167H27.7333V21.9111H27.7778V21.8333H27.7944L27.8556 21.9111H27.9L27.8389 21.8389ZM32 2.66667V22.2222C32 23.6944 30.8056 24.8889 29.3333 24.8889H2.66667C1.19444 24.8889 0 23.6944 0 22.2222V2.66667C0 1.19444 1.19444 0 2.66667 0H29.3333C30.8056 0 32 1.19444 32 2.66667ZM3.55556 10.4222C3.55556 14.6722 7.00556 18.1167 11.25 18.1167C12.7611 18.1167 14.2444 17.6611 15.5 16.8333C11.45 13.5389 11.4778 7.32222 15.5 4.02778C14.2444 3.19444 12.7611 2.74444 11.25 2.74444C7.00556 2.73889 3.55556 6.18889 3.55556 10.4222ZM16 16.4667C19.9167 13.4111 19.9 7.45556 16 4.38333C12.1 7.45556 12.0833 13.4167 16 16.4667ZM8.09444 20.7056C8.09444 20.2222 7.77778 19.9056 7.27778 19.8889C7.02222 19.8889 6.75 19.9667 6.56667 20.25C6.43333 20.0222 6.20556 19.8889 5.88889 19.8889C5.67778 19.8889 5.46667 19.9667 5.3 20.1889V19.9444H4.84444V21.9833H5.3C5.3 20.9333 5.16111 20.3056 5.8 20.3056C6.36667 20.3056 6.25556 20.8722 6.25556 21.9833H6.69444C6.69444 20.9667 6.55556 20.3056 7.19444 20.3056C7.76111 20.3056 7.65 20.8611 7.65 21.9833H8.10556V20.7056H8.09444ZM10.5889 19.9444H10.15V20.1889C10 20.0056 9.78889 19.8889 9.5 19.8889C8.92778 19.8889 8.48889 20.3444 8.48889 20.9611C8.48889 21.5833 8.92778 22.0333 9.5 22.0333C9.78889 22.0333 10 21.9278 10.15 21.7333V21.9889H10.5889V19.9444ZM12.8389 21.3667C12.8389 20.5333 11.5667 20.9111 11.5667 20.5222C11.5667 20.2056 12.2278 20.2556 12.5944 20.4611L12.7778 20.1C12.2556 19.7611 11.1 19.7667 11.1 20.5556C11.1 21.35 12.3722 21.0167 12.3722 21.3889C12.3722 21.7389 11.6222 21.7111 11.2222 21.4333L11.0278 21.7833C11.65 22.2056 12.8389 22.1167 12.8389 21.3667ZM14.8056 21.8833L14.6833 21.5056C14.4722 21.6222 14.0056 21.75 14.0056 21.2778V20.3556H14.7333V19.9444H14.0056V19.3222H13.55V19.9444H13.1278V20.35H13.55V21.2778C13.55 22.2556 14.5111 22.0778 14.8056 21.8833ZM15.5444 21.1389H17.0722C17.0722 20.2389 16.6611 19.8833 16.1056 19.8833C15.5167 19.8833 15.0944 20.3222 15.0944 20.9556C15.0944 22.0944 16.35 22.2833 16.9722 21.7444L16.7611 21.4111C16.3278 21.7667 15.6722 21.7333 15.5444 21.1389ZM18.8278 19.9444C18.5722 19.8333 18.1833 19.8444 17.9833 20.1889V19.9444H17.5278V21.9833H17.9833V20.8333C17.9833 20.1889 18.5111 20.2722 18.6944 20.3667L18.8278 19.9444ZM19.4167 20.9611C19.4167 20.3278 20.0611 20.1222 20.5667 20.4944L20.7778 20.1333C20.1333 19.6278 18.9611 19.9056 18.9611 20.9667C18.9611 22.0667 20.2056 22.2889 20.7778 21.8L20.5667 21.4389C20.0556 21.8 19.4167 21.5833 19.4167 20.9611ZM23.1222 19.9444H22.6667V20.1889C22.2056 19.5778 21.0056 19.9222 21.0056 20.9611C21.0056 22.0278 22.25 22.3333 22.6667 21.7333V21.9889H23.1222V19.9444ZM24.9944 19.9444C24.8611 19.8778 24.3833 19.7833 24.15 20.1889V19.9444H23.7111V21.9833H24.15V20.8333C24.15 20.2222 24.65 20.2611 24.8611 20.3667L24.9944 19.9444ZM27.2333 19.1167H26.7944V20.1889C26.3389 19.5833 25.1333 19.9056 25.1333 20.9611C25.1333 22.0389 26.3833 22.3278 26.7944 21.7333V21.9889H27.2333V19.1167ZM27.6556 14.9444V15.2H27.7V14.9444H27.8056V14.9H27.55V14.9444H27.6556ZM28.0222 21.8222C28.0222 21.7944 28.0222 21.7611 28.0056 21.7333C27.9889 21.7167 27.9778 21.6889 27.9611 21.6722C27.9444 21.6556 27.9167 21.6444 27.9 21.6278C27.8722 21.6278 27.8389 21.6111 27.8111 21.6111C27.7944 21.6111 27.7667 21.6278 27.7333 21.6278C27.7056 21.6444 27.6889 21.6556 27.6722 21.6722C27.6444 21.6889 27.6278 21.7167 27.6278 21.7333C27.6111 21.7611 27.6111 21.7944 27.6111 21.8222C27.6111 21.8389 27.6111 21.8667 27.6278 21.9C27.6278 21.9167 27.6444 21.9444 27.6722 21.9611C27.6889 21.9778 27.7 21.9889 27.7333 22.0056C27.7611 22.0222 27.7944 22.0222 27.8111 22.0222C27.8389 22.0222 27.8722 22.0222 27.9 22.0056C27.9167 21.9889 27.9444 21.9778 27.9611 21.9611C27.9778 21.9444 27.9889 21.9167 28.0056 21.9C28.0222 21.8667 28.0222 21.8389 28.0222 21.8222ZM28.2 14.8944H28.1222L28.0333 15.0889L27.9444 14.8944H27.8667V15.1944H27.9111V14.9667L28 15.1611H28.0611L28.1389 14.9667V15.1944H28.2V14.8944ZM28.4444 10.4222C28.4444 6.18889 24.9944 2.73889 20.75 2.73889C19.2389 2.73889 17.7556 3.19444 16.5 4.02222C20.5056 7.31667 20.5667 13.55 16.5 16.8278C17.7556 17.6611 19.25 18.1111 20.75 18.1111C24.9944 18.1167 28.4444 14.6722 28.4444 10.4222Z" fill="white"/>
</svg>
