<svg width="108" height="108" viewBox="0 0 108 108" fill="none" xmlns="http://www.w3.org/2000/svg">
<circle cx="54" cy="54" r="54" fill="url(#paint0_linear)"/>
<path d="M75.0167 32.6943H38.6287C35.8843 32.7064 33.6574 34.9332 33.6574 37.6897V37.7499H32.9833C30.2389 37.7499 28.012 39.9647 28 42.7091V70.3101C28.012 73.0545 30.2269 75.2934 32.9833 75.3054H69.3713C72.1157 75.2934 74.3426 73.0666 74.3426 70.3101V70.2499H75.0167C77.7611 70.2499 79.988 68.0351 80 65.2906V37.6897C79.988 34.9332 77.7731 32.7064 75.0167 32.6943ZM69.3713 72.898H32.9833C31.563 72.886 30.4194 71.7304 30.4074 70.3101V42.7091C30.4194 41.3008 31.563 40.1573 32.9833 40.1573H69.3713C70.7796 40.1573 71.9352 41.2888 71.9352 42.7091V49.5943C71.7185 49.6425 71.5019 49.6666 71.2972 49.6666H64.3519C60.5722 49.6666 57.5028 52.736 57.5028 56.5156C57.5028 60.2953 60.5722 63.3647 64.3519 63.3767H71.2852C71.5019 63.3647 71.7185 63.3406 71.9231 63.3166L71.9352 70.3101C71.9352 71.7304 70.7917 72.886 69.3713 72.898ZM77.5926 65.2906C77.5806 66.699 76.437 67.8425 75.0167 67.8425H74.3426V62.4499C74.8602 62.1008 75.3296 61.6675 75.7269 61.186L77.5926 58.7786V65.2906ZM73.825 59.7295C73.2232 60.5119 72.2843 60.9693 71.2972 60.9814H64.3519C61.8963 60.9693 59.9102 58.9832 59.9102 56.5277C59.9102 54.0721 61.8963 52.086 64.3519 52.074H71.2852C72.1157 52.074 72.9343 51.8934 73.6806 51.5323C74.475 51.1592 75.1731 50.5934 75.7148 49.8953L77.5806 47.4879L77.5926 54.8425L73.825 59.7295ZM77.5926 43.5517L74.3426 47.7406V42.7091C74.3426 39.9647 72.1157 37.7499 69.3713 37.7499H36.0648V37.6897C36.0648 36.2693 37.2083 35.1138 38.6287 35.1017H75.0167C76.437 35.1138 77.5806 36.2693 77.5926 37.6897V43.5517Z" fill="white"/>
<defs>
<linearGradient id="paint0_linear" x1="27" y1="100" x2="98" y2="6" gradientUnits="userSpaceOnUse">
<stop stop-color="#2D39A9"/>
<stop offset="1" stop-color="#99CAEB"/>
</linearGradient>
</defs>
</svg>
