<svg width="16" height="16" viewBox="0 0 16 16" fill="none" xmlns="http://www.w3.org/2000/svg">
<path d="M13.7703 0.392938L13.8941 2.97937C12.4736 1.3095 10.3581 0.25 7.9948 0.25C4.21017 0.25 1.05972 2.96638 0.384 6.557C0.340653 6.78728 0.518538 7 0.752729 7H2.28561C2.45956 7 2.60968 6.87994 2.65024 6.71066C3.22937 4.294 5.40058 2.5 7.9948 2.5C9.89647 2.5 11.571 3.46425 12.5576 4.93128L9.38683 4.77925C9.17307 4.769 8.99415 4.93966 8.99415 5.15381V6.63541C8.99415 6.8425 9.16195 7.01041 9.36891 7.01041H15.6252C15.8322 7.01041 16 6.8425 16 6.63541V0.375C16 0.167906 15.8322 0 15.6252 0H14.1446C13.9306 0 13.76 0.179031 13.7703 0.392938ZM7.9948 13.5C6.09307 13.5 4.41847 12.5357 3.43186 11.0686L6.61317 11.2208C6.82693 11.231 7.00582 11.0604 7.00582 10.8462V9.36462C7.00582 9.15753 6.83802 8.98962 6.63106 8.98962H0.374756C0.167797 8.98962 0 9.15753 0 9.36462V15.625C0 15.8321 0.167797 16 0.374756 16H1.85457C2.0689 16 2.23957 15.8205 2.22886 15.6063L2.09992 13.0258C3.52037 14.6927 5.63399 15.75 7.9948 15.75C11.7794 15.75 14.9299 13.0336 15.6056 9.443C15.6489 9.21272 15.4711 9 15.2369 9H13.704C13.53 9 13.3799 9.12006 13.3394 9.28934C12.7602 11.706 10.589 13.5 7.9948 13.5Z" fill="#31353D"/>
</svg>
