<svg width="18" height="18" viewBox="0 0 18 18" fill="none" xmlns="http://www.w3.org/2000/svg">
<path d="M6.75 7.3125C6.75 6.69129 6.24621 6.1875 5.625 6.1875H5.0625C3.81973 6.1875 2.8125 7.19473 2.8125 8.4375V10.125C2.8125 11.3678 3.81973 12.375 5.0625 12.375H5.625C6.24621 12.375 6.75 11.8712 6.75 11.25V7.3125ZM12.9375 12.375C14.1803 12.375 15.1875 11.3678 15.1875 10.125V8.4375C15.1875 7.19473 14.1803 6.1875 12.9375 6.1875H12.375C11.7538 6.1875 11.25 6.69129 11.25 7.3125V11.25C11.25 11.8712 11.7538 12.375 12.375 12.375H12.9375ZM9 0C3.97898 0 0.161016 4.17762 0 9V9.5625C0 9.87328 0.251719 10.125 0.5625 10.125H1.125C1.43578 10.125 1.6875 9.87328 1.6875 9.5625V9C1.6875 4.96793 4.96793 1.6875 9 1.6875C13.0321 1.6875 16.3125 4.96793 16.3125 9H16.3083C16.3111 9.08543 16.3125 14.8261 16.3125 14.8261C16.3125 15.647 15.647 16.3125 14.8261 16.3125H11.25C11.25 15.3805 10.4945 14.625 9.5625 14.625H8.4375C7.50551 14.625 6.75 15.3805 6.75 16.3125C6.75 17.2445 7.50551 18 8.4375 18H14.8261C16.579 18 18 16.579 18 14.8261V9C17.839 4.17762 14.021 0 9 0Z" fill="white"/>
</svg>
