<svg width="18" height="23" viewBox="0 0 18 23" fill="none" xmlns="http://www.w3.org/2000/svg">
<path fill-rule="evenodd" clip-rule="evenodd" d="M17.1468 4.47149C17.3597 4.47309 17.5335 4.30183 17.5351 4.08897L17.5612 0.620249C17.5628 0.407391 17.3915 0.233541 17.1786 0.231945C16.9658 0.230348 16.7919 0.401608 16.7903 0.614466L16.771 3.19508C13.9598 0.702671 10.8951 0.202365 8.1683 0.639768C5.67281 1.04006 3.46609 2.22283 1.97849 3.35713L2.13107 0.774074C2.14362 0.561581 1.98154 0.379145 1.76904 0.366593C1.55655 0.354041 1.37412 0.516125 1.36156 0.728618L1.15701 4.1914C1.14446 4.40389 1.30655 4.58633 1.51904 4.59888L4.98182 4.80343C5.19431 4.81598 5.37675 4.6539 5.3893 4.4414C5.40185 4.22891 5.23977 4.04647 5.02728 4.03392L2.55485 3.88787C3.95762 2.84203 6.00248 1.76788 8.29039 1.40089C10.7845 1.0008 13.574 1.43779 16.17 3.69329L13.6839 3.67464C13.471 3.67305 13.2972 3.84431 13.2956 4.05716C13.294 4.27002 13.4653 4.44387 13.6781 4.44547L17.1468 4.47149ZM15.2569 7.69933L15.1482 8.13536C14.829 9.41718 14.8179 9.83637 14.8008 10.4781C14.7904 10.8701 14.7778 11.3452 14.6913 12.1509L14.6742 12.3117C14.4498 14.3973 14.0803 16.4833 13.5753 18.5119C13.4515 19.01 13.0356 19.3579 12.5637 19.3579H11.9868C12.034 19.5415 12.0591 19.7339 12.0591 19.9321C12.0591 21.2007 11.0308 22.2291 9.76219 22.2291H5.1683C4.32001 22.2291 3.54077 21.7615 3.14158 21.0131C2.85146 20.4691 2.80463 19.8849 2.9427 19.3579H1.74768C0.784008 19.3579 0 18.4993 0 17.4438C0 16.3884 0.784008 15.5297 1.74768 15.5297C1.96823 15.5297 2.19264 15.5404 2.41494 15.5615L9.8181 16.2666C9.79748 16.5304 9.787 16.7957 9.787 17.061H10.4861C10.4861 16.3321 10.5721 15.6043 10.7412 14.8992L10.8765 14.336C11.7626 10.6494 12.3805 9.37112 14.0185 6.00686C14.1481 5.74156 14.3995 5.57618 14.6742 5.57618C15.0839 5.57618 15.417 5.94101 15.417 6.38968C15.417 6.83184 15.3631 7.27248 15.2569 7.69933ZM10.757 19.3579H4.17366C3.98635 19.6822 3.95439 20.0966 4.15494 20.4726C4.35453 20.8468 4.74415 21.0806 5.1683 21.0806H9.76219C10.3965 21.0806 10.9107 20.5664 10.9107 19.9321C10.9107 19.723 10.8547 19.5269 10.757 19.3579Z" fill="#31353D"/>
</svg>
