<svg width="32" height="25" viewBox="0 0 32 25" fill="none" xmlns="http://www.w3.org/2000/svg">
<path d="M26.1167 11.0722C26.1167 11.0722 26.5389 13.1389 26.6333 13.5722H24.7778C24.9611 13.0778 25.6667 11.1556 25.6667 11.1556C25.6556 11.1722 25.85 10.65 25.9611 10.3278L26.1167 11.0722ZM32 2.66667V22.2222C32 23.6944 30.8056 24.8889 29.3333 24.8889H2.66667C1.19444 24.8889 0 23.6944 0 22.2222V2.66667C0 1.19444 1.19444 0 2.66667 0H29.3333C30.8056 0 32 1.19444 32 2.66667ZM8.47222 16.6222L11.9833 8H9.62222L7.43889 13.8889L7.2 12.6944L6.42222 8.72778C6.29444 8.17778 5.9 8.02222 5.41111 8H1.81667L1.77778 8.17222C2.65556 8.39444 3.43889 8.71667 4.12222 9.12222L6.11111 16.6222H8.47222ZM13.7167 16.6333L15.1167 8H12.8833L11.4889 16.6333H13.7167ZM21.4889 13.8111C21.5 12.8278 20.9 12.0778 19.6167 11.4611C18.8333 11.0667 18.3556 10.8 18.3556 10.3944C18.3667 10.0278 18.7611 9.65 19.6389 9.65C20.3667 9.63333 20.9 9.80556 21.3 9.97778L21.5 10.0722L21.8056 8.20556C21.3667 8.03333 20.6667 7.83889 19.8056 7.83889C17.6 7.83889 16.05 9.01667 16.0389 10.6944C16.0222 11.9333 17.15 12.6222 17.9944 13.0389C18.8556 13.4611 19.15 13.7389 19.15 14.1111C19.1389 14.6889 18.45 14.9556 17.8111 14.9556C16.9222 14.9556 16.4444 14.8167 15.7167 14.4944L15.4222 14.3556L15.1111 16.2944C15.6333 16.5333 16.6 16.7444 17.6 16.7556C19.9444 16.7611 21.4722 15.6 21.4889 13.8111ZM29.3333 16.6333L27.5333 8H25.8056C25.2722 8 24.8667 8.15556 24.6389 8.71667L21.3222 16.6333H23.6667C23.6667 16.6333 24.05 15.5667 24.1333 15.3389H27C27.0667 15.6444 27.2667 16.6333 27.2667 16.6333H29.3333Z" fill="white"/>
</svg>
