<svg width="23" height="12" viewBox="0 0 23 12" fill="none" xmlns="http://www.w3.org/2000/svg">
<path d="M2.80002 11H4.85802L6.39802 5.11997C6.56602 4.47597 6.66402 3.81797 6.66402 3.81797H6.70602C6.70602 3.81797 6.80402 4.47597 6.95802 5.11997L8.51202 11H10.542L13.118 1.05997H11.256L9.60402 7.93397C9.47802 8.49397 9.45002 8.98397 9.45002 8.98397H9.42202C9.42202 8.98397 9.36602 8.50797 9.21202 7.93397L7.44802 1.05997H5.93602L4.15802 7.93397C4.00402 8.50797 3.94802 8.98397 3.94802 8.98397H3.92002C3.92002 8.98397 3.87802 8.49397 3.75202 7.93397L2.21202 1.05997H0.322021L2.80002 11Z" fill="#31353D"/>
<path d="M13.8781 5.98797C13.8781 8.91397 15.8941 11.168 19.0161 11.168C20.7941 11.168 22.0681 10.426 22.9221 9.55797L21.9701 8.25597C21.2141 8.99797 20.1501 9.51597 19.0861 9.51597C16.9301 9.51597 15.7401 7.82197 15.7401 5.95997C15.7401 4.12597 16.8881 2.54397 19.0721 2.54397C20.0381 2.54397 21.0881 2.99197 21.7881 3.59397L22.6561 2.24997C21.6901 1.31197 20.2901 0.891968 18.9881 0.891968C15.9921 0.891968 13.8781 3.10397 13.8781 5.98797Z" fill="#31353D"/>
</svg>
