<svg width="15" height="10" viewBox="0 0 15 10" fill="none" xmlns="http://www.w3.org/2000/svg">
<path d="M8.58328 8.46719C8.58328 9.24656 7.95147 9.87837 7.17211 9.87837C6.39274 9.87837 5.76093 9.24656 5.76093 8.46719C5.76093 7.68783 6.39274 7.05602 7.17211 7.05602C7.95147 7.05602 8.58328 7.68783 8.58328 8.46719ZM11.5966 5.72327C11.7391 5.58072 11.7343 5.347 11.5841 5.21245C9.07503 2.96372 5.26634 2.96628 2.76009 5.21245C2.60996 5.347 2.60511 5.58072 2.74766 5.72327L3.49748 6.47309C3.62816 6.60378 3.83845 6.61244 3.97747 6.49064C5.80494 4.88964 8.54337 4.89322 10.3667 6.49064C10.5058 6.61244 10.7161 6.6038 10.8467 6.47309L11.5966 5.72327ZM14.0685 3.21584C14.2093 3.07505 14.2064 2.84505 14.0608 2.70929C10.1852 -0.903758 4.1576 -0.902435 0.283415 2.70929C0.1378 2.84505 0.134911 3.07507 0.275698 3.21584L1.02463 3.96477C1.15903 4.09916 1.37503 4.10216 1.51467 3.97322C4.70663 1.02589 9.63677 1.02514 12.8296 3.97322C12.9692 4.10216 13.1852 4.09916 13.3196 3.96477L14.0685 3.21584Z" fill="#31353D"/>
</svg>
