<svg width="45" height="45" viewBox="0 0 45 45" fill="none" xmlns="http://www.w3.org/2000/svg">
<rect width="45" height="45" rx="14" fill="#EA3323"/>
<path d="M34.4985 16.6404C34.2225 15.6011 33.4092 14.7825 32.3766 14.5048C30.505 14 23 14 23 14C23 14 15.495 14 13.6234 14.5048C12.5908 14.7826 11.7775 15.6011 11.5015 16.6404C11 18.5242 11 22.4545 11 22.4545C11 22.4545 11 26.3849 11.5015 28.2687C11.7775 29.308 12.5908 30.0924 13.6234 30.3702C15.495 30.875 23 30.875 23 30.875C23 30.875 30.505 30.875 32.3766 30.3702C33.4092 30.0924 34.2225 29.308 34.4985 28.2687C35 26.3849 35 22.4545 35 22.4545C35 22.4545 35 18.5242 34.4985 16.6404ZM20.5454 26.023V18.8861L26.8181 22.4546L20.5454 26.023Z" fill="white"/>
</svg>
