<svg width="17" height="22" viewBox="0 0 17 22" fill="none" xmlns="http://www.w3.org/2000/svg">
<path fill-rule="evenodd" clip-rule="evenodd" d="M5.39594 6.26174V1.76512C5.39594 1.01868 4.79339 0.416138 4.04695 0.416138C3.30051 0.416138 2.69797 1.01868 2.69797 1.76512V6.26174H5.39594ZM13.4898 6.26174V1.76512C13.4898 1.01868 12.8873 0.416138 12.1409 0.416138C11.3944 0.416138 10.7919 1.01868 10.7919 1.76512V6.26174H13.4898ZM8.99297 17.4748C13.0178 17.1317 16.1878 13.7465 16.1878 9.63432V9.18466C16.1878 8.31681 15.4818 7.61085 14.614 7.61085H1.57381C0.705968 7.61085 0 8.31681 0 9.18466V9.63432C0 13.7463 3.16978 17.1314 7.19433 17.4747V18.4027C7.19433 19.642 8.20247 20.651 9.44263 20.651C9.68994 20.651 9.89229 20.8525 9.89229 21.1007C9.89229 21.5971 10.2943 22 10.7916 22C11.2889 22 11.6909 21.5971 11.6909 21.1007C11.6909 19.8614 10.6828 18.8524 9.44263 18.8524C9.19532 18.8524 8.99297 18.6509 8.99297 18.4027V17.4748Z" fill="#999696"/>
</svg>
