<svg width="22" height="22" viewBox="0 0 22 22" fill="none" xmlns="http://www.w3.org/2000/svg">
<path d="M6.47644 18.4529H12.951C14.7383 18.4529 16.1883 17.0029 16.1883 15.2156H17.2674C19.6481 15.2156 21.5837 13.28 21.5837 10.8993C21.5837 8.51851 19.6481 6.58289 17.2674 6.58289H4.04848C3.59999 6.58289 3.23916 6.94371 3.23916 7.39221V15.2156C3.23916 17.0029 4.6892 18.4529 6.47644 18.4529ZM17.2674 8.74107C18.4578 8.74107 19.4256 9.70888 19.4256 10.8993C19.4256 12.0896 18.4578 13.0574 17.2674 13.0574H16.1883V8.74107H17.2674ZM18.8759 21.6902H1.63064C0.0254908 21.6902 -0.42638 19.532 0.416662 19.532H20.0865C20.9295 19.532 20.4844 21.6902 18.8759 21.6902Z" fill="#999696"/>
<path fill-rule="evenodd" clip-rule="evenodd" d="M7.01905 0.842177C7.20944 0.461394 7.67247 0.307052 8.05325 0.497443L14.22 3.58084C14.6008 3.77123 14.7552 4.23425 14.5648 4.61504C14.3744 4.99582 13.9113 5.15016 13.5306 4.95977L7.36378 1.87638C6.983 1.68599 6.82866 1.22296 7.01905 0.842177ZM4.62512 4.2703C4.62512 3.84458 4.97024 3.49945 5.39597 3.49945H9.63563C10.0614 3.49945 10.4065 3.84458 10.4065 4.2703C10.4065 4.69603 10.0614 5.04115 9.63563 5.04115H5.39597C4.97024 5.04115 4.62512 4.69603 4.62512 4.2703Z" fill="#999696"/>
</svg>
