<svg width="17" height="18" viewBox="0 0 17 18" fill="none" xmlns="http://www.w3.org/2000/svg">
<path d="M16.4019 3.6733L14.6974 5.37785C14.619 5.4562 14.526 5.51835 14.4236 5.56075C14.3213 5.60315 14.2116 5.62497 14.1008 5.62496H1.23147C0.765474 5.62496 0.387721 5.24721 0.387721 4.78121V1.96875C0.387721 1.50275 0.765474 1.125 1.23147 1.125H6.85647V0.84375C6.85647 0.377754 7.23422 0 7.70022 0H8.82522C9.29122 0 9.66897 0.377754 9.66897 0.84375V1.125H14.1007C14.3245 1.125 14.5391 1.21389 14.6973 1.37211L16.4019 3.07666C16.5667 3.24144 16.5667 3.50856 16.4019 3.6733ZM6.85647 12.9375V17.1562C6.85647 17.6222 7.23422 18 7.70022 18H8.82522C9.29122 18 9.66897 17.6222 9.66897 17.1562V12.9375H6.85647ZM15.294 7.875H9.66897V6.1875H6.85647V7.875H2.42471C2.20094 7.875 1.98634 7.96389 1.82811 8.12211L0.123557 9.82666C-0.0411855 9.99141 -0.0411855 10.2585 0.123557 10.4233L1.82811 12.1279C1.90645 12.2062 1.99946 12.2683 2.10183 12.3107C2.2042 12.3531 2.31391 12.375 2.42471 12.375H15.294C15.76 12.375 16.1377 11.9972 16.1377 11.5312V8.71871C16.1377 8.25275 15.76 7.875 15.294 7.875Z" fill="#31353D"/>
</svg>
