<svg width="36" height="17" viewBox="0 0 36 17" fill="none" xmlns="http://www.w3.org/2000/svg">
<path d="M4.14234 15.9165H7.31516L9.68937 6.8513C9.94837 5.85845 10.0995 4.84401 10.0995 4.84401H10.1642C10.1642 4.84401 10.3153 5.85845 10.5527 6.8513L12.9485 15.9165H16.0782L20.0496 0.592013H17.1789L14.632 11.1896C14.4378 12.053 14.3946 12.8084 14.3946 12.8084H14.3515C14.3515 12.8084 14.2651 12.0746 14.0277 11.1896L11.3081 0.592013H8.97711L6.23597 11.1896C5.99855 12.0746 5.91221 12.8084 5.91221 12.8084H5.86904C5.86904 12.8084 5.80429 12.053 5.61004 11.1896L3.23583 0.592013H0.322021L4.14234 15.9165Z" fill="#999696"/>
<path d="M21.2213 8.18949C21.2213 12.7005 24.3294 16.1755 29.1426 16.1755C31.8837 16.1755 33.8478 15.0315 35.1644 13.6933L33.6967 11.6861C32.5312 12.83 30.8909 13.6286 29.2505 13.6286C25.9266 13.6286 24.092 11.017 24.092 8.14633C24.092 5.31885 25.8618 2.87989 29.2289 2.87989C30.7182 2.87989 32.337 3.57057 33.4161 4.49867L34.7543 2.42663C33.2651 0.980521 31.1067 0.333008 29.0994 0.333008C24.4805 0.333008 21.2213 3.74324 21.2213 8.18949Z" fill="#999696"/>
</svg>
