<svg width="22" height="16" viewBox="0 0 22 16" fill="none" xmlns="http://www.w3.org/2000/svg">
<path d="M12.9675 13.5533C12.9675 14.7549 11.9934 15.729 10.7919 15.729C9.59031 15.729 8.61625 14.7549 8.61625 13.5533C8.61625 12.3518 9.59031 11.3777 10.7919 11.3777C11.9934 11.3777 12.9675 12.3518 12.9675 13.5533ZM17.613 9.32306C17.8328 9.10329 17.8253 8.74296 17.5938 8.53553C13.7256 5.06867 7.85374 5.07261 3.98987 8.53553C3.75841 8.74296 3.75093 9.10329 3.9707 9.32306L5.12669 10.4791C5.32817 10.6805 5.65237 10.6939 5.8667 10.5061C8.68411 8.03786 12.9059 8.04336 15.717 10.5061C15.9313 10.6939 16.2555 10.6806 16.457 10.4791L17.613 9.32306ZM21.4241 5.45735C21.6411 5.2403 21.6367 4.88571 21.4122 4.67641C15.4371 -0.893809 6.1444 -0.891769 0.171585 4.67641C-0.0529098 4.88571 -0.057363 5.24034 0.159687 5.45735L1.31432 6.61199C1.52151 6.81918 1.85452 6.8238 2.0698 6.62501C6.99084 2.08112 14.5916 2.07997 19.5139 6.62501C19.7292 6.8238 20.0622 6.81918 20.2694 6.61199L21.4241 5.45735Z" fill="#27AE60"/>
</svg>
